<?xml version="1.0" encoding="UTF-8" standalone="no"?>
<!-- Created with Inkscape (http://www.inkscape.org/) -->

<svg
   width="56.78904mm"
   height="65.4748mm"
   viewBox="0 0 56.78904 65.4748"
   version="1.1"
   id="svg1"
   xml:space="preserve"
   xmlns="http://www.w3.org/2000/svg"
   xmlns:svg="http://www.w3.org/2000/svg"><defs
     id="defs1" /><g
     id="layer1"
     transform="translate(-420.84889,-203.54217)"><g
       id="g18"
       transform="translate(70.015388,5.1353971)"
       style="mix-blend-mode:hue;fill:#303030;fill-opacity:1"><g
         id="path6"
         transform="rotate(90,225.36798,210.07879)"
         style="fill:#303030;fill-opacity:1"><path
           style="color:#000000;fill:#303030;fill-opacity:1;-inkscape-stroke:none;paint-order:markers stroke fill"
           d="m 235.64648,27.824219 c -2.75744,0 -5.31073,1.475267 -6.68945,3.863281 l -11.93359,20.669922 c -1.37872,2.388014 -1.37872,5.334641 0,7.722656 l 11.93359,20.671875 c 1.37872,2.388015 3.93201,3.861328 6.68945,3.861328 h 23.86719 c 2.75744,0 5.31073,-1.473314 6.68945,-3.861328 l 11.9336,-20.671875 c 1.37872,-2.388014 1.37872,-5.334641 0,-7.722656 L 266.20312,31.6875 c -1.37872,-2.388015 -3.93201,-3.863281 -6.68945,-3.863281 z m 0,2.5 h 23.86719 c 1.86829,0 3.59125,0.995297 4.52539,2.613281 l 11.9336,20.669922 c 0.93414,1.617984 0.93414,3.604673 0,5.222656 l -11.9336,20.671875 c -0.93414,1.617984 -2.6571,2.611328 -4.52539,2.611328 h -23.86719 c -1.86828,0 -3.58929,-0.993344 -4.52343,-2.611328 L 219.1875,58.830078 c -0.93414,-1.617984 -0.93414,-3.604673 0,-5.222656 L 231.12305,32.9375 c 0.93414,-1.617984 2.65515,-2.613281 4.52343,-2.613281 z"
           id="path34" /><path
           style="color:#000000;fill:#303030;fill-opacity:1;-inkscape-stroke:none;paint-order:markers stroke fill"
           d="m 259.51436,83.363466 -23.86833,-10e-7 a 6.4738003,6.4738003 30.000005 0 1 -5.60647,-3.236901 L 218.10539,59.455985 a 6.4738013,6.4738013 90.000009 0 1 1e-5,-6.473801 l 11.93416,-20.670579 a 6.4738019,6.4738019 150.00001 0 1 5.60648,-3.2369 l 23.86833,2e-6 a 6.4738007,6.4738007 30.000006 0 1 5.60647,3.236901 l 11.93417,20.670578 a 6.4738012,6.4738012 90.000008 0 1 -10e-6,6.473801 l -11.93416,20.670579 a 6.4738022,6.4738022 150.00001 0 1 -5.60648,3.2369 z"
           id="path35" /></g><g
         id="path7"
         transform="rotate(90,226.5147,208.93207)"
         style="fill:#303030;fill-opacity:1"><path
           style="color:#000000;fill:#303030;fill-opacity:1;-inkscape-stroke:none;paint-order:markers stroke fill"
           d="m 235.64648,27.824219 c -2.75744,0 -5.31073,1.475267 -6.68945,3.863281 l -11.93359,20.669922 c -1.37872,2.388014 -1.37872,5.334641 0,7.722656 l 11.93359,20.671875 c 1.37872,2.388015 3.93201,3.861328 6.68945,3.861328 h 23.86719 c 2.75744,0 5.31073,-1.473314 6.68945,-3.861328 l 11.9336,-20.671875 c 1.37872,-2.388014 1.37872,-5.334641 0,-7.722656 L 266.20312,31.6875 c -1.37872,-2.388015 -3.93201,-3.863281 -6.68945,-3.863281 z m 0,2.5 h 23.86719 c 1.86829,0 3.59125,0.995297 4.52539,2.613281 l 11.9336,20.669922 c 0.93414,1.617984 0.93414,3.604673 0,5.222656 l -11.9336,20.671875 c -0.93414,1.617984 -2.6571,2.611328 -4.52539,2.611328 h -23.86719 c -1.86828,0 -3.58929,-0.993344 -4.52343,-2.611328 L 219.1875,58.830078 c -0.93414,-1.617984 -0.93414,-3.604673 0,-5.222656 L 231.12305,32.9375 c 0.93414,-1.617984 2.65515,-2.613281 4.52343,-2.613281 z"
           id="path36" /><path
           style="color:#000000;fill:#303030;fill-opacity:1;-inkscape-stroke:none;paint-order:markers stroke fill"
           d="m 259.51436,83.363466 -23.86833,-10e-7 a 6.4738003,6.4738003 30.000005 0 1 -5.60647,-3.236901 L 218.10539,59.455985 a 6.4738013,6.4738013 90.000009 0 1 1e-5,-6.473801 l 11.93416,-20.670579 a 6.4738019,6.4738019 150.00001 0 1 5.60648,-3.2369 l 23.86833,2e-6 a 6.4738007,6.4738007 30.000006 0 1 5.60647,3.236901 l 11.93417,20.670578 a 6.4738012,6.4738012 90.000008 0 1 -10e-6,6.473801 l -11.93416,20.670579 a 6.4738022,6.4738022 150.00001 0 1 -5.60648,3.2369 z"
           id="path37" /></g><path
         id="path8"
         style="fill:#303030;fill-opacity:1;stroke-width:0.838999;paint-order:markers stroke fill"
         d="m 352.9876,214.77781 a 6.4738003,6.4738003 0 0 0 -0.90434,3.28559 l 1e-5,23.86831 a 6.4738022,6.4738022 0 0 0 3.23701,5.60637 l 20.67057,11.93416 a 6.4738012,6.4738012 0 0 0 6.47351,0 l 20.67057,-11.93416 a 6.4738007,6.4738007 0 0 0 2.39313,-2.42569 z" /><path
         d="m 365.54384,238.64763 q -2.82322,0 -4.28712,-1.56845 -1.42903,-1.56846 -1.42903,-4.49625 v -1.98671 h 3.62487 v 2.16099 q 0,2.40496 1.98672,2.40496 0.97592,0 1.46389,-0.59252 0.52282,-0.62739 0.52282,-2.16099 v -1.98671 q 0,-1.67302 -0.59253,-2.37011 -0.59253,-0.73195 -1.917,-0.73195 h -1.28962 v -3.48546 h 1.39418 q 1.1502,0 1.70788,-0.59253 0.59252,-0.59253 0.59252,-1.98671 v -1.77759 q 0,-1.25476 -0.52282,-1.84729 -0.52281,-0.59253 -1.39418,-0.59253 -1.84729,0 -1.84729,2.26555 v 1.60331 h -3.62488 v -1.28962 q 0,-2.92778 1.42904,-4.49624 1.46389,-1.56846 4.18255,-1.56846 2.75351,0 4.18255,1.56846 1.42904,1.5336 1.42904,4.46139 v 0.87136 q 0,1.98671 -0.66224,3.20663 -0.66223,1.18505 -2.05642,1.70787 v 0.0697 q 1.49875,0.55767 2.16099,1.81244 0.66223,1.25477 0.66223,3.20662 v 2.16099 q 0,2.92778 -1.46389,4.49624 -1.42904,1.5336 -4.25226,1.5336 z m 14.10705,0 q -2.82323,0 -4.32197,-1.60331 -1.49875,-1.60331 -1.49875,-4.5311 v -12.82649 q 0,-2.92778 1.49875,-4.5311 1.49874,-1.60331 4.32197,-1.60331 2.82322,0 4.32197,1.60331 1.49874,1.60332 1.49874,4.5311 v 12.82649 q 0,2.92779 -1.49874,4.5311 -1.49875,1.60331 -4.32197,1.60331 z m 0,-3.48546 q 1.98671,0 1.98671,-2.40496 v -13.31446 q 0,-2.40497 -1.98671,-2.40497 -1.98672,0 -1.98672,2.40497 v 13.31446 q 0,2.40496 1.98672,2.40496 z m 14.00248,3.48546 q -2.82322,0 -4.32197,-1.60331 -1.49875,-1.60331 -1.49875,-4.5311 v -12.82649 q 0,-2.92778 1.49875,-4.5311 1.49875,-1.60331 4.32197,-1.60331 2.82322,0 4.32197,1.60331 1.49875,1.60332 1.49875,4.5311 v 12.82649 q 0,2.92779 -1.49875,4.5311 -1.49875,1.60331 -4.32197,1.60331 z m 0,-3.48546 q 1.98671,0 1.98671,-2.40496 v -13.31446 q 0,-2.40497 -1.98671,-2.40497 -1.98671,0 -1.98671,2.40497 v 13.31446 q 0,2.40496 1.98671,2.40496 z"
         id="text11"
         style="-inkscape-font-specification:'Bebas Neue, Normal';fill:#303030;fill-opacity:1;stroke-width:0.690517;paint-order:markers stroke fill"
         aria-label="300" /><path
         id="path11"
         style="fill:#303030;fill-opacity:1;stroke-width:0.223282;paint-order:markers stroke fill"
         d="m 355.54122,214.6496 c -0.0477,1.23151 0.38285,2.8318 1.61436,2.87947 -1.23151,-0.0477 -1.73932,1.47532 -1.78699,2.70683 0.0477,-1.23151 -0.38285,-2.8318 -1.61436,-2.87947 1.23151,0.0477 1.73932,-1.47532 1.78699,-2.70683 z" /><path
         id="path12"
         style="fill:#303030;fill-opacity:1;stroke-width:0.257657;paint-order:markers stroke fill"
         d="m 403.47081,231.00179 c -0.055,1.42111 0.44179,3.26777 1.8629,3.32278 -1.42111,-0.055 -2.0071,1.70245 -2.06211,3.12356 0.0551,-1.42111 -0.44179,-3.26777 -1.86289,-3.32278 1.4211,0.055 2.00709,-1.70245 2.0621,-3.12356 z" /><path
         id="path13"
         style="fill:#303030;fill-opacity:1;stroke-width:0.147875;paint-order:markers stroke fill"
         d="m 401.42657,230.32071 c -0.0316,0.8156 0.25356,1.87544 1.06916,1.90701 -0.8156,-0.0316 -1.15192,0.97708 -1.18349,1.79268 0.0316,-0.8156 -0.25355,-1.87544 -1.06915,-1.90701 0.8156,0.0316 1.15191,-0.97708 1.18348,-1.79268 z" /><path
         id="path14"
         style="fill:#303030;fill-opacity:1;stroke-width:0.257657;paint-order:markers stroke fill"
         d="m 357.21984,218.48345 c -0.055,1.42111 0.44179,3.26777 1.8629,3.32278 -1.42111,-0.055 -2.0071,1.70245 -2.06211,3.12356 0.0551,-1.42111 -0.44179,-3.26777 -1.86289,-3.32278 1.4211,0.055 2.00709,-1.70245 2.0621,-3.12356 z" /><g
         id="text15"
         style="fill:#303030;fill-opacity:1"><path
           style="color:#000000;-inkscape-font-specification:'Bebas Neue, Normal';fill:#303030;fill-opacity:1;-inkscape-stroke:none;paint-order:markers stroke fill"
           d="m 391.61719,240.61719 c -0.72259,0 -1.35607,0.22537 -1.79102,0.6914 l -0.002,0.002 -0.002,0.002 c -0.42587,0.46741 -0.61524,1.11584 -0.61524,1.875 v 0.88477 h 2.13672 v -0.99415 c 0,-0.20859 0.046,-0.30503 0.0664,-0.33007 0.0204,-0.025 0.0282,-0.043 0.1582,-0.043 0.10816,0 0.12486,0.0134 0.16992,0.0644 0.0239,0.0271 0.0781,0.1331 0.0781,0.36914 v 0.62891 c 0,0.26768 -0.0632,0.37762 -0.084,0.39844 l -0.004,0.004 -0.004,0.006 c -0.0306,0.0326 -0.0956,0.0742 -0.29297,0.0742 h -0.91992 v 2.08789 h 0.88281 c 0.23306,0 0.30432,0.0485 0.3457,0.0996 l 0.002,0.004 0.004,0.004 c 0.0301,0.0354 0.10743,0.21709 0.10743,0.56055 v 0.70117 c 0,0.31252 -0.0727,0.47234 -0.0859,0.48828 v 0.002 c -0.0259,0.0314 -0.0443,0.0547 -0.1875,0.0547 -0.14756,0 -0.16956,-0.0231 -0.19727,-0.0566 -0.0277,-0.0335 -0.0762,-0.14099 -0.0762,-0.36523 v -1.19141 h -2.13672 v 1.12891 c 0,0.75915 0.18938,1.40954 0.61524,1.87695 l 0.002,0.002 0.002,0.002 c 0.43842,0.46974 1.08396,0.6914 1.82813,0.6914 h 0.42773 v -0.16015 c 0.52618,-0.0786 1.05624,-0.16487 1.38672,-0.51953 0.43457,-0.46643 0.63281,-1.11876 0.63281,-1.87891 v -0.76367 c 0,-0.50809 -0.0845,-0.95549 -0.2832,-1.33203 -0.11033,-0.20904 -0.34654,-0.30394 -0.53125,-0.45118 0.16689,-0.13603 0.38275,-0.21936 0.48828,-0.4082 l 0.002,-0.004 0.002,-0.002 c 0.20245,-0.37293 0.28515,-0.82049 0.28515,-1.33594 v -0.30859 c 0,-0.75749 -0.19,-1.40289 -0.61718,-1.86328 -0.42875,-0.47057 -1.06323,-0.69531 -1.79297,-0.69531 z m -18.21485,0.12304 0.0742,0.49219 0.24219,1.5957 h 0.16797 v -2.08789 z m 5.15039,0 v 0.42969 1.23633 l 0.25196,-1.66602 z m 4.49219,0 -1.625,0.85743 h 0.82617 v 0.375 h -1.53711 l -0.80078,0.42187 v 2.71094 h 1.85938 v 0.375 h -1.85938 v 3.5039 h 2.33789 v 0.375 h -2.83593 v -6.70117 l -0.85743,0.45117 v 7.10743 h 4.49219 0.0586 4.3789 v -2.08789 h -2.22851 v -7.38868 h -2.15039 z m -8.72265,0.36524 -0.42383,0.49219 h 0.49804 z m 3.5625,0 -0.0742,0.49219 h 0.49609 z m -11.94727,0.0644 -0.42969,0.42774 h 0.42969 z m 0.49805,0 v 0.42774 h 0.42773 z m 3.75781,0 -0.42774,0.42774 h 0.42774 z m 2.83789,0 v 0.42774 h 0.42773 z m 6.37891,0 -0.42969,0.42774 h 0.42969 z m 12.20703,0.30469 c 0.56716,0 0.9158,0.14587 1.16015,0.41406 l 0.002,0.002 0.002,0.002 c 0.2439,0.26175 0.39062,0.66336 0.39062,1.2832 v 0.30859 c 0,0.42031 -0.0741,0.72609 -0.18359,0.92774 -0.1064,0.18812 -0.25249,0.31343 -0.5,0.40625 l -0.27734,0.10547 v 0.61719 l 0.27929,0.10546 c 0.27392,0.10193 0.42726,0.23676 0.53321,0.4375 0.11318,0.21446 0.18554,0.52235 0.18554,0.9336 v 0.76367 c 0,0.61814 -0.14825,1.02269 -0.40234,1.29492 v 0.002 c -0.24067,0.25829 -0.6021,0.4043 -1.18945,0.4043 -0.5836,0 -0.94628,-0.14874 -1.19727,-0.41601 -0.2466,-0.27135 -0.39453,-0.67984 -0.39453,-1.29883 v -0.27344 h 0.42383 v 0.33594 c 0,0.34213 0.0672,0.66051 0.27344,0.91015 0.20622,0.24964 0.5371,0.36719 0.85742,0.36719 0.3156,0 0.64163,-0.11703 0.8457,-0.36328 v -0.002 c 0.23192,-0.2793 0.28516,-0.62606 0.28516,-1.03516 v -0.70117 c 0,-0.44218 -0.0648,-0.8171 -0.31055,-1.10938 -0.23797,-0.29007 -0.61727,-0.41601 -1.00586,-0.41601 h -0.0273 v -0.375 h 0.0645 c 0.34158,0 0.67636,-0.0997 0.9082,-0.3418 0.25358,-0.25779 0.33399,-0.61006 0.33399,-0.99609 v -0.62891 c 0,-0.35496 -0.0707,-0.68358 -0.29297,-0.93555 -0.2012,-0.22802 -0.51025,-0.35351 -0.8125,-0.35351 -0.30504,0 -0.62517,0.11569 -0.82227,0.35742 -0.1971,0.24173 -0.25976,0.54614 -0.25976,0.87109 v 0.13672 h -0.42383 v -0.0273 c 0,-0.61788 0.14483,-1.02357 0.39062,-1.29492 0.25455,-0.27273 0.60615,-0.41797 1.16407,-0.41797 z m -7.7168,0.12305 h 0.49805 v 7.38671 h 2.22851 v 0.375 h -2.72656 z m -10.86914,0.375 v 0.42773 l 0.42773,-0.42773 z m -1.48242,0.42773 -0.42969,0.42773 h 0.42969 z m 9.21484,0.42773 h 2.28125 v 5.30079 h -2.28125 v -1.79102 h 1.85938 V 244.25 h -1.85938 z m -2.32617,0.34375 -0.94141,0.49415 -0.86132,5.69335 h -1.0625 l -0.65625,-4.33203 -0.80079,0.42383 0.72071,4.76563 h 2.53515 z m -1.29688,0.6836 -0.92968,0.49023 -0.0469,0.34766 -0.0391,-0.30274 -0.80664,0.42579 0.45898,3.46679 h 0.77539 z m -6.02148,0.39453 0.42969,0.42773 V 244.25 Z m 1.43164,0.42773 v 0.42774 h 0.42774 z m 0,0.80274 v 0.42969 l 0.42774,-0.42969 z m 0.85742,0.34375 -0.97461,0.51367 h 0.97461 z m -1.85937,0.0859 -0.42969,0.42773 h 0.42969 z m 0,0.89453 -0.85742,0.45117 v 1.72851 h 2.33984 v 0.375 h -2.83789 v -1.83984 l -0.85547,0.45117 v 0.15821 h -0.29883 l -1.62304,0.85546 h 1.24804 v 0.375 h -1.95898 l -0.76758,0.4043 v -0.4043 h -0.42969 l 0.41406,0.41211 -0.84179,0.44532 h 4.25781 0.18164 4.36719 v -2.08789 h -2.33789 z m -4.68555,1.32422 0.42774,0.42773 v -0.42773 z"
           id="path45" /><path
           style="color:#000000;-inkscape-font-specification:'Bebas Neue, Normal';fill:#303030;fill-opacity:1;-inkscape-stroke:none;paint-order:markers stroke fill"
           d="m 365.50865,241.16897 h 1.35438 v 7.3875 h 2.22856 v 1.23125 h -3.58294 z m 4.25693,0 h 3.69375 v 1.23125 h -2.33938 v 2.27781 h 1.85919 v 1.23125 h -1.85919 v 2.64719 h 2.33938 v 1.23125 h -3.69375 z m 4.13381,0 h 1.36669 l 0.8865,6.68569 h 0.0246 l 0.8865,-6.68569 h 1.24357 l -1.30513,8.61875 h -1.79762 z m 5.08187,0 h 3.69375 v 1.23125 h -2.33938 v 2.27781 h 1.85919 v 1.23125 h -1.85919 v 2.64719 h 2.33938 v 1.23125 h -3.69375 z m 4.49087,0 h 1.35438 v 7.3875 h 2.22856 v 1.23125 h -3.58294 z m 8.14484,8.74187 q -0.99732,0 -1.51444,-0.55406 -0.50481,-0.55406 -0.50481,-1.58831 v -0.70181 h 1.2805 v 0.76337 q 0,0.84956 0.70181,0.84956 0.34475,0 0.51712,-0.20931 0.18469,-0.22162 0.18469,-0.76337 v -0.70182 q 0,-0.591 -0.20931,-0.83725 -0.20931,-0.25856 -0.67719,-0.25856 h -0.45556 v -1.23125 h 0.4925 q 0.40631,0 0.60331,-0.20931 0.20931,-0.20931 0.20931,-0.70181 v -0.62794 q 0,-0.44325 -0.18468,-0.65256 -0.18469,-0.20932 -0.4925,-0.20932 -0.65257,0 -0.65257,0.80032 v 0.56637 h -1.2805 v -0.45556 q 0,-1.03425 0.50482,-1.58831 0.51712,-0.55407 1.4775,-0.55407 0.97268,0 1.4775,0.55407 0.50481,0.54175 0.50481,1.576 v 0.30781 q 0,0.70181 -0.23394,1.13275 -0.23394,0.41862 -0.72644,0.60331 v 0.0246 q 0.52944,0.197 0.76338,0.64025 0.23394,0.44325 0.23394,1.13275 v 0.76337 q 0,1.03425 -0.51713,1.58831 -0.50481,0.54175 -1.50212,0.54175 z"
           id="path46" /></g><path
         id="path15"
         style="fill:#303030;fill-opacity:1;stroke-width:0.838999;paint-order:markers stroke fill"
         d="m 381.63769,222.90031 v 9.85676 c 0,1.60331 -0.66249,2.40502 -1.98696,2.40502 -1.32448,0 -1.98644,-0.80171 -1.98644,-2.40502 v -9.82885 a 25.202909,15.576255 0 0 0 -3.83388,0.36276 v 9.22218 c 0,1.95186 0.49945,3.46212 1.49862,4.53099 0.99916,1.06887 2.43955,1.60352 4.3217,1.60352 1.88214,0 3.32305,-0.53465 4.32222,-1.60352 0.99916,-1.06887 1.49861,-2.57913 1.49861,-4.53099 v -9.23871 a 25.202909,15.576255 0 0 0 -3.83387,-0.37414 z m 6.19497,0.79943 v 8.81342 c 0,1.95186 0.49945,3.46212 1.49861,4.53099 0.99917,1.06887 2.44007,1.60352 4.32222,1.60352 1.88215,0 3.32254,-0.53465 4.3217,-1.60352 0.99917,-1.06887 1.49913,-2.57913 1.49913,-4.53099 v -3.69021 a 25.202909,15.576255 0 0 0 -3.83439,-2.42518 v 6.3593 c 0,1.60331 -0.66197,2.40502 -1.98644,2.40502 -1.32447,0 -1.98696,-0.80171 -1.98696,-2.40502 v -8.01708 a 25.202909,15.576255 0 0 0 -3.83387,-1.04025 z m -17.53382,0.26924 a 25.202909,15.576255 0 0 0 -6.67194,2.45876 v 0.89194 h 1.28933 c 0.88298,0 1.52217,0.24429 1.91719,0.73225 0.39502,0.46473 0.59273,1.25454 0.59273,2.36988 v 1.98696 c 0,1.0224 -0.17442,1.74286 -0.52296,2.16111 -0.32531,0.39502 -0.81338,0.59221 -1.464,0.59221 -1.32447,0 -1.98644,-0.80171 -1.98644,-2.40502 v -2.16059 h -3.6251 v 1.98644 c 0,1.95186 0.47616,3.45073 1.42885,4.49637 0.97593,1.04564 2.40545,1.56838 4.2876,1.56838 1.88214,0 3.29924,-0.51136 4.25193,-1.53376 0.97593,-1.04563 1.464,-2.54451 1.464,-4.49636 v -2.1606 c 0,-1.30123 -0.221,-2.37001 -0.6625,-3.20652 -0.44149,-0.83651 -1.16142,-1.44102 -2.16059,-1.81281 v -0.0698 c 0.80322,-0.30121 1.4231,-0.76796 1.8619,-1.39888 z" /><path
         id="path18"
         style="-inkscape-font-specification:'Bebas Neue, Normal';fill:#303030;fill-opacity:1;stroke-width:0.690517;paint-order:markers stroke fill"
         d="m 365.36943,214.08741 c -0.15125,0.003 -0.30212,0.009 -0.45165,0.0181 -1.76363,0.0571 -3.51969,1.13763 -4.04678,2.87683 -0.40144,1.08238 -0.42223,2.25397 -0.41031,3.39462 h 2.56676 c -0.029,-1.25028 -0.11137,-2.89804 1.17203,-3.5941 1.30381,-0.71243 3.19525,-0.0363 3.50779,1.48467 0.25007,1.21877 0.1486,2.48586 0.0992,3.7207 -0.0585,1.25914 -1.1157,2.34068 -2.38797,2.35645 -0.38991,0.13423 -1.20407,-0.219 -1.26245,0.21859 v 2.22777 c 1.24171,-0.0922 2.78657,0.10331 3.37705,1.37252 0.66514,1.48781 0.3601,3.1738 0.40463,4.75217 0.0112,1.19781 -0.63265,2.57489 -1.94924,2.73058 -1.80224,0.47669 -3.32927,-1.24425 -3.06493,-2.98896 -0.15399,-0.45695 0.33741,-1.55892 -0.29972,-1.53273 h -2.26653 c -0.0388,2.007 -0.0695,4.36886 1.53738,5.83634 1.55907,1.33132 3.85849,1.3678 5.75158,0.86351 1.92487,-0.50029 2.97955,-2.52135 3.04633,-4.39663 0.008,-1.7777 0.24003,-3.62482 -0.31161,-5.34799 -0.33889,-1.1541 -1.36034,-1.94091 -2.47272,-2.28927 -0.15492,-0.63442 0.1458,-0.95484 0.74724,-1.09605 1.71101,-0.79104 2.02382,-2.87196 1.97146,-4.55528 0.0847,-1.97332 -0.3257,-4.31666 -2.1854,-5.38727 -0.92583,-0.53261 -2.0134,-0.6832 -3.07216,-0.66456 z m 13.06122,0.0822 c -0.006,-8e-5 -0.0854,0.0137 -0.0264,0.006 0.0221,-0.004 0.0284,-0.006 0.0264,-0.006 z m 2.44223,0 c -0.01,-0.003 -0.004,-0.004 0.047,0.008 -0.0114,0.001 -0.0371,-0.005 -0.047,-0.008 z m -1.32912,0.45165 c -0.15453,0.002 -0.30902,0.008 -0.46302,0.0155 -1.87815,0.0135 -3.66518,1.41915 -3.92948,3.31608 -0.4048,2.09679 -0.0903,4.24381 -0.1912,6.36292 0.0471,3.22162 -0.1208,6.45464 0.11317,9.66866 0.24363,1.76679 1.66367,3.37277 3.50004,3.50573 1.95161,0.35385 4.39757,-0.11601 5.32061,-2.0805 0.93379,-2.0048 0.48271,-4.28122 0.58808,-6.41511 -0.044,-3.5703 0.11006,-7.14993 -0.10025,-10.71407 -0.23013,-1.77262 -1.61839,-3.3944 -3.45251,-3.56929 -0.45729,-0.0776 -0.92185,-0.0973 -1.38544,-0.0899 z m 14.05495,0 c -0.15453,0.002 -0.30903,0.008 -0.46302,0.0155 -1.87815,0.0135 -3.66517,1.41915 -3.92947,3.31608 -0.4048,2.09679 -0.0909,4.24381 -0.19172,6.36292 0.0471,3.22161 -0.1208,6.45464 0.11317,9.66866 0.24363,1.76679 1.66367,3.37277 3.50004,3.50573 1.95161,0.35385 4.39809,-0.11601 5.32113,-2.0805 0.93379,-2.00479 0.4827,-4.28122 0.58807,-6.41511 -0.044,-3.57029 0.11006,-7.14994 -0.10025,-10.71407 -0.23011,-1.77262 -1.61838,-3.3944 -3.4525,-3.56929 -0.45728,-0.0776 -0.92186,-0.0973 -1.38545,-0.0899 z m -13.92059,1.33635 c 0.0958,8.6e-4 0.19243,0.007 0.28938,0.017 1.603,0.027 2.89205,1.56837 2.76314,3.14348 0.0881,3.98388 0.003,7.97083 0.0408,11.95586 -0.09,1.41524 0.26365,3.08684 -0.81546,4.21887 -1.32904,1.52755 -4.18141,1.14997 -4.97282,-0.7519 -0.47946,-1.31439 -0.24979,-2.76546 -0.31626,-4.13773 0.068,-3.98509 -0.0939,-7.97742 0.0837,-11.95793 0.20825,-1.45179 1.4899,-2.50062 2.92747,-2.4877 z m 14.05495,0 c 0.0958,8.6e-4 0.19244,0.007 0.28939,0.017 1.603,0.027 2.89153,1.56837 2.76262,3.14348 0.0881,3.98388 0.003,7.97084 0.0408,11.95586 -0.09,1.41524 0.26365,3.08684 -0.81546,4.21887 -1.32905,1.52754 -4.18089,1.14997 -4.9723,-0.7519 -0.47946,-1.31439 -0.24979,-2.76546 -0.31626,-4.13773 0.068,-3.98508 -0.0939,-7.97742 0.0837,-11.95793 0.20824,-1.45178 1.48989,-2.50062 2.92747,-2.4877 z m -9.14518,1.27486 c -0.001,-0.0106 0.002,-0.005 0.0155,0.0486 -0.007,-0.0113 -0.014,-0.038 -0.0155,-0.0486 z m -9.88001,0.0191 c 0.007,-0.0218 0.0142,-0.0396 -10e-4,0.0119 -0.014,0.0356 -0.006,0.01 10e-4,-0.0119 z m -0.26149,1.12655 c 0.003,-0.0192 0.006,-0.035 10e-4,0.0103 -0.006,0.0315 -0.004,0.009 -10e-4,-0.0103 z m 10.47172,0.61598 c 10e-4,-0.007 0.003,-0.002 0.002,0.0372 -0.003,-0.0101 -0.003,-0.0299 -0.002,-0.0372 z m 0.002,14.17588 c 0.002,-0.01 0.005,-0.007 -0.002,0.0367 -0.004,-0.006 -8.7e-4,-0.0271 0.002,-0.0367 z m -10.47223,0.64234 c 0.0104,0.0907 -0.0129,-0.063 0,0 z m 10.15597,1.10535 c 0.006,-0.0112 0.007,-0.006 -0.0155,0.0491 -0.002,-0.0102 0.01,-0.0379 0.0155,-0.0491 z m -9.89656,0.0176 c 0.0305,0.10298 -0.0281,-0.0711 0,0 z m 0.19534,0.50592 c 0.03,0.0772 -0.0279,-0.0548 0,0 z m 4.09588,2.65255 c 0.0965,0.01 -0.0588,-0.002 0,0 z" /></g></g></svg>
