<?xml version="1.0" encoding="utf-8"?>
<!-- Generator: Adobe Illustrator 27.5.0, SVG Export Plug-In . SVG Version: 6.00 Build 0)  -->
<svg version="1.1" id="Слой_2" xmlns="http://www.w3.org/2000/svg" xmlns:xlink="http://www.w3.org/1999/xlink" x="0px" y="0px"
	 viewBox="0 0 2000 2000" style="enable-background:new 0 0 2000 2000;" xml:space="preserve">
<rect style="fill:#FFFFFF;" width="2000" height="2000"/>
<g>
	<path style="fill:#2BB19E;" d="M1668.672,1420.147c0,0-11.762,32.188-32.485,88.385c-0.673,0.597-1.308,1.231-1.942,1.904
		c-17.288,18.521-14.487,51.081-34.502,66.577c-6.535,5.041-14.675,7.469-22.105,11.053c4.182-10.007,7.767-20.798,9.933-31.627
		c2.315-11.688-14.861-7.394-13.704-20.611c0.971-11.24,16.43-22.592,16.355-39.544c-0.038-2.353-0.896-3.622-2.203-4.294
		c6.049-6.759,12.434-13.331,18.856-19.566c5.825-5.676,11.688-11.053,17.326-16.094
		C1648.173,1434.934,1668.672,1420.147,1668.672,1420.147z"/>
	<path style="fill:#108875;" d="M1587.569,1556.439c-2.166,10.829-5.751,21.657-9.933,31.665c-2.688,1.307-5.303,2.763-7.729,4.556
		c-11.389,8.514-17.886,20.611-13.629,34.054c-0.822,1.046-1.568,2.017-2.278,2.876l-15.944-0.075
		c3.734-1.009,6.423-4.369,6.423-8.401v-0.187c0-4.817-3.884-8.775-8.737-8.775h-4.967c-10.381-12.658-14.264-52.985-12.099-88.049
		c3.548,1.382,6.759,2.764,9.148-2.763c2.428-5.602-5.899-23.188,2.39-31.291c11.314-11.128,14.451,15.832,22.33-13.667
		c6.534-24.495,28.154-38.236,28.154-38.236s6.273,11.463,3.249,34.391c-0.485,3.397-7.879,13.891-7.58,17.96
		c0.299,3.996,13.778-3.547,13.854,5.788c0.074,16.952-15.385,28.304-16.355,39.544
		C1572.708,1549.046,1589.885,1544.752,1587.569,1556.439z"/>
	<path style="fill:#1D9A85;" d="M1682.322,1481.753c9.299-7.815,10.713-22.068,18.64-31.272c7.928-9.203,18.78-28.011,30.638-25.371
		c-9.581,8.321-8.681,29.985-14.042,41.488c-6.11,13.109-14.104,25.369-23.059,36.727c-9.416,11.941-7.359,29.16-12.808,43.357
		c-6.145,16.016-21.055,26.594-34.006,37.842c-12.951,11.249-25.424,25.753-23.686,42.818h-67.523
		c-4.631-13.696,1.848-26.035,13.439-34.679c9.021-6.728,20.906-8.771,29.811-15.653c20.043-15.493,17.231-48.038,34.514-66.561
		C1647.045,1496.728,1667.955,1493.828,1682.322,1481.753z"/>
	<path style="fill:#0A715D;" d="M1711.819,1585.838c-4.028,6.52-0.437,15.309-3.034,22.519
		c-2.948,8.185-13.239,13.746-14.422,22.364h-86.173c8.009-25.943,34.442-42.177,59.562-52.485s52.622-19.27,69.524-40.52
		c10.585,10.415,7.367,31.018-5.891,37.71C1724.664,1578.818,1715.776,1579.432,1711.819,1585.838z"/>
	<path style="fill:#2B2150;" d="M1651.89,1535.739c-0.208,0-0.419-0.033-0.627-0.109c-0.971-0.347-1.478-1.415-1.131-2.385
		c3.304-9.263,14.87-30.927,29.512-38.756c0.894-0.496,2.034-0.146,2.523,0.766c0.488,0.908,0.146,2.039-0.767,2.523
		c-13.678,7.319-24.603,27.899-27.753,36.721C1653.374,1535.265,1652.655,1535.739,1651.89,1535.739z"/>
	<g>
		<path style="fill:#8173B2;" d="M1799.746,1453.055c0,14.988-11.998,27.139-26.798,27.139s-26.798-12.15-26.798-27.139
			c0-14.989,11.998-27.14,26.798-27.14S1799.746,1438.065,1799.746,1453.055z"/>
		<ellipse style="fill:#F7AF4D;" cx="1772.948" cy="1453.779" rx="10.096" ry="10.856"/>
	</g>
	<path style="fill:#EB678C;" d="M1666.395,1376.971c0,14.988-11.997,27.14-26.797,27.14c-14.801,0-26.798-12.151-26.798-27.14
		c0-14.989,11.997-27.14,26.798-27.14C1654.397,1349.831,1666.395,1361.981,1666.395,1376.971z"/>
	<path style="fill:#EB678C;" d="M1666.395,1376.981c0,14.974-11.986,27.146-26.811,27.146c-0.971,0-1.941-0.037-2.875-0.187
		c-1.941-0.187-3.771-0.598-5.526-1.194c-10.68-3.585-18.371-13.779-18.371-25.766c0-15.011,11.986-27.146,26.772-27.146
		C1654.408,1349.835,1666.395,1361.971,1666.395,1376.981z"/>
	<path style="fill:#F7AF4D;" d="M1649.692,1377.695c0,5.996-4.52,10.856-10.095,10.856c-5.576,0-10.096-4.86-10.096-10.856
		c0-5.995,4.52-10.855,10.096-10.855C1645.173,1366.84,1649.692,1371.7,1649.692,1377.695z"/>
	<g>
		<path style="fill:#E6325C;" d="M514.482,1471.005c-2.315-8.514-3.959-12.733-4.22-16.915c6.721-1.718,13.816-2.651,21.172-2.651
			h10.269c-3.024,5.041-5.713,10.866-7.393,17.476c-1.345,5.302-2.577,8.85-3.697,11.164c0.075-0.709,0.037-1.419-0.038-2.091
			C529.344,1468.988,519.785,1463.574,514.482,1471.005z"/>
		<path style="fill:#E6325C;" d="M1058.307,1514.395v53.994c0,24.906,20.649,45.069,46.115,45.069h427.063v-0.485
			c-0.225-0.261-0.486-0.522-0.71-0.821h4.967c4.854,0,8.737,3.958,8.737,8.775v0.187c0,4.816-3.884,8.7-8.737,8.7
			c0,0-1014.015,0.262-1018.646-0.561c7.692,0.075,13.48,0.075,13.48,0.075c0.336-0.561,0.672-1.158,0.934-1.718h3.361
			c9.41-12.023,26.997-44.137,33.083-75.987c2.315-12.099-14.414-7.543-13.219-21.247c1.008-11.65,16.094-23.45,16.094-41.037
			c0-9.671-13.143-1.755-13.405-5.899c-0.262-4.22,6.982-15.123,7.431-18.67c0.634-4.967,0.896-9.41,0.896-13.331h410.109v53.509
			c0,2.091,1.606,3.249,2.726,1.979l28.118-32.673l28.117,32.673c1.082,1.271,2.726,0.112,2.726-1.979v-53.509h498.195
			c4.854,0,8.737,3.958,8.737,8.775v0.187c0,4.779-3.884,8.7-8.737,8.7h-157.95v0.261h-273.369
			C1078.956,1469.361,1058.307,1489.525,1058.307,1514.395z"/>
	</g>
	<path style="fill:#C2DEF5;" d="M1531.492,1612.96v0.483h-427.053c-25.479,0-46.135-20.166-46.135-45.041v-54.003
		c0-24.876,20.655-45.041,46.135-45.041h427.053v0.483C1514.047,1490.976,1513.228,1593.431,1531.492,1612.96z"/>
	<g>
		<path style="fill:#F7AF4D;" d="M975.859,1436.278v15.422l-414.926-0.262h-29.499l-21.172-0.037
			c0.261-3.024,1.195-6.497,3.099-11.874c0.374-1.083,0.747-2.203,1.083-3.249H975.859z"/>
		<path style="fill:#F7AF4D;" d="M1582.117,1340.389v44.248c0,34.204-28.715,62.471-65.943,66.802
			c-3.248,0.411-6.571,0.598-9.97,0.598l-468.658-0.299v-15.459h37.714c25.951,0,47.012-20.463,47.012-45.667v-54.778
			c0-25.242-21.061-45.705-47.012-45.705H502.944v0.485c0.038,0.037,0.038,0.037,0.075,0.075h-1.157c-4.817,0-8.701-3.958-8.701-8.7
			v-0.188c0-4.854,3.883-8.774,8.701-8.774h1004.343C1548.138,1273.026,1582.117,1303.197,1582.117,1340.389z"/>
		<path style="fill:#C2DEF5;" d="M1122.271,1335.833v54.778c0,25.204-21.061,45.667-47.012,45.667H514.445
			c4.257-13.405,4.63-24.831,3.734-31.44c-0.374-2.764-1.344-6.161-3.249-8.7c4.332-38.461,0.075-90.999-11.986-105.524v-0.485
			h572.316C1101.211,1290.128,1122.271,1310.591,1122.271,1335.833z"/>
	</g>
	<g>
		<path style="fill:#2BB19E;" d="M1522.484,925.275v-0.485H950.169c-25.952,0-47.012,20.351-47.012,45.481v54.555
			c0,25.093,21.06,45.48,47.012,45.48h572.315v-0.485c-0.187-0.225-0.41-0.448-0.597-0.673h1.681c4.816,0,8.7,3.921,8.7,8.775v0.149
			c0,4.854-3.884,8.738-8.7,8.738l-1004.344,0.634c-41.933,0-75.913-30.171-75.913-67.398v-44.249
			c0-37.19,33.979-67.362,75.913-67.362h1004.344c4.816,0,8.7,3.921,8.7,8.775v0.186c0,4.743-3.884,8.701-8.7,8.701h-1.719
			C1522.037,925.798,1522.261,925.537,1522.484,925.275z"/>
		<path style="fill:#C2DEF5;" d="M1522.485,1069.802v0.488H950.167c-25.961,0-47.006-20.363-47.006-45.482v-54.533
			c0-25.119,21.045-45.482,47.006-45.482h572.318v0.488C1504.71,946.622,1503.875,1050.081,1522.485,1069.802z"/>
		<path style="fill:#4B3584;" d="M1497.552,1270.901H422.66c-7.773,0-14.075-6.302-14.075-14.075v-156.621
			c0-7.773,6.302-14.074,14.075-14.074h1074.892V1270.901z"/>
		<path style="fill:#F7AF4D;" d="M731.206,1120.528c-0.336,0.411-6.796,36.481-6.796,36.481c-0.56,2.838-3.286,4.779-6.161,4.332
			h-0.112c-2.875-0.448-4.929-3.063-4.63-5.938l2.913-28.977c-4.854,2.166-9.372,5.078-13.032,9.261
			c-6.236,7.095-9.82,17.513-17.774,21.881c-3.734,2.055-7.954,2.428-12.061,2.577c-12.994,0.448-26.026-1.046-38.572-4.443
			c-1.718-0.485-3.547-1.046-4.742-2.502c-1.232-1.531-1.531-3.697-1.792-5.713c-0.971-7.879-1.643-17.064,3.436-22.89
			c5.937-6.871,15.944-4.929,23.897-8.253c13.368-5.563,17.849-23.711,23.861-38.273c0.075-0.187,0.149-0.336,0.224-0.522
			l-0.448,3.771c-0.224,1.755-0.224,3.36,0.037,4.892c1.531,10.23,12.92,14.824,28.939,5.488
			c7.58-4.406,15.123-14.936,17.251-23.674c0.112-0.336,0.187-0.672,0.262-1.008l0.411-2.091c4.705,3.733,8.327,9.521,9.933,15.795
			c2.987,11.612,0.598,24.309-3.137,35.921C732.662,1118.026,732.139,1119.482,731.206,1120.528z"/>
		<path style="fill:#F5AE9E;" d="M718.51,1003.952c6.647,1.157,13.331,2.202,20.015,3.099c-0.485,1.793-12.621,59.969-12.621,59.969
			c-1.793,8.925-9.634,20.089-17.513,24.682c-18.372,10.717-30.694,3.1-28.976-10.38l9.746-83.456
			c3.921,0.971,7.916,1.83,11.912,2.689C706.822,1001.786,712.648,1002.906,718.51,1003.952z"/>
		<path style="fill:#F7AF4D;" d="M851.255,1131.432l-0.112,0.037c-2.763,0.934-5.788-0.448-6.871-3.137l-10.829-26.997
			c-3.323,4.146-5.974,8.85-7.281,14.227c-2.24,9.187-0.523,20.09-5.564,27.633c-2.39,3.547-5.937,5.825-9.521,7.878
			c-11.314,6.423-23.523,11.165-36.219,13.965c-4.569,1.009-7.043-0.547-9.598-4.256c-4.518-6.534-9.335-14.339-7.58-21.882
			c2.054-8.85,11.837-11.762,17.363-18.371c9.26-11.165,4.817-29.313,3.361-44.995c-0.038-0.224-0.038-0.411-0.038-0.635
			l1.382,3.622c0.635,1.681,1.381,3.137,2.315,4.368c6.124,8.327,18.334,7.058,28.155-8.625c3.093-4.94,4.706-10.77,5.189-16.547
			c0.245-2.928,0.198-5.889-0.189-8.802c-0.083-0.628-0.801-6.547-1.527-6.689c5.899,1.157,11.762,4.63,16.094,9.447
			c8.028,8.887,11.837,21.246,13.891,33.232c0.261,1.456,11.015,39.805,11.015,39.805
			C855.512,1127.511,853.98,1130.461,851.255,1131.432z"/>
	</g>
	<path style="fill:#F5AE9E;" d="M810.218,1074.264c-11.314,18.035-25.765,16.989-30.47,4.257l-26.736-69.752
		c1.344,0.186,2.726,0.336,4.07,0.448h0.037c16.169,1.53,32.188,2.166,47.46,1.718l9.708,33.345
		C816.827,1053.017,815.072,1066.571,810.218,1074.264z"/>
	<path style="fill:#E6325C;" d="M819.889,749.029l-4.966-18.036l19.119,3.771l-2.054,5.788
		C830.12,745.818,825.154,749.066,819.889,749.029z"/>
	<path style="fill:#E6325C;" d="M1003.715,844.882c-0.522,18.297-9.857,36.556-23.823,48.318
		c-12.509,10.604-27.221,13.816-42.717,15.123c-5.862,0.523-11.837,0.747-17.849,1.008c-3.137,0.149-6.311,0.299-9.447,0.523
		c-5.116,0.298-10.829,0.597-16.616,0.784c-5.825,0.224-11.725,0.374-17.251,0.448c-9.97,0.112-18.596,0-22.703-0.411
		c-0.038-0.074-0.038-0.149-0.112-0.187c0,1.008,7.58,30.47,11.389,61.985c0.373,3.323,0.709,6.684,1.046,10.007
		c0.56,6.199,0.934,12.36,1.008,18.297c-5.751,2.053-11.837,3.734-18.26,5.153c-4.07,0.858-8.29,1.642-12.546,2.277
		c-23.861,3.623-51.045,3.623-78.714,1.009h-0.149c-2.764-0.262-5.527-0.56-8.29-0.896c-10.044-1.12-20.164-2.613-30.171-4.368
		c-5.862-1.046-11.688-2.166-17.438-3.398c-10.269-2.166-20.388-4.63-30.134-7.356c-1.419-0.374-2.24-1.979-1.83-3.473
		c3.174-11.389,10.045-32.523,17.923-55.488c0.897-2.614,1.755-5.265,2.689-7.879c13.293-38.498,28.341-79.46,32.673-86.406
		c3.398-5.451,10.567-10.978,19.865-16.317h98.168l75.614-21.733l-82.41-2.95l-2.763-10.044c4.519-1.344,12.024-3.473,12.024-3.473
		c0.075-1.568,0.149-3.883-0.149-6.833c-0.187-1.83-0.374-3.771-0.561-5.676c-0.373-3.473-3.323-18.259-7.692-38.087l25.317,5.004
		l8.439-33.382l-37.34-12.808c-9.335-1.83-20.911-0.747-30.059,3.024l12.136-34.502c-8.103-36.855,18.931-58.363,26.325-81.252
		c4.033-12.509,19.193-13.294,23.6-13.294v-0.037c0,0,3.622-0.56,9.223-1.269l-0.523,6.684l0.187,0.298
		c1.83,17.476,23.898,24.906,44.846,9.485c0,0,8.289-7.842,7.319-17.475c0,0-0.038-0.075-0.112-0.261
		c1.419,0.336,2.651,0.709,3.734,1.158c3.958,1.68,18.819,5.115,29.723,11.911c6.572,2.427,18.185,7.394,20.313,13.741
		c0.934,2.726,2.39,5.377,2.54,8.775l1.344,8.924l19.94,131.438c1.606,10.679-4.033,20.761-13.181,24.495
		c-1.456,0.598-3.1,1.046-4.743,1.307l-8.364,0.896c0.486,1.755,0.971,3.585,1.494,5.452c2.128,7.767,5.975,14.937,9.559,22.143
		C993.671,810.267,1004.238,827.78,1003.715,844.882z"/>
	<g>
		<g>
			<path style="fill:#F5AE9E;" d="M868.245,706.461l-8.439,33.382l-44.883-8.85l-5.153-18.819h-24.047
				c2.913-15.347,27.931-21.919,45.182-18.521L868.245,706.461z"/>
			<polygon style="fill:#C0E3E9;" points="916.04,801.903 840.426,823.635 680.983,823.635 650.364,712.174 809.769,712.174 
				833.63,798.953 			"/>
			<path style="fill:#156C5D;" d="M728.757,767.202c1.705,6.039,6.662,9.927,11.072,8.682c4.411-1.245,6.604-7.15,4.899-13.19
				c-1.704-6.04-6.662-9.927-11.072-8.683C729.246,755.257,727.052,761.162,728.757,767.202z"/>
			<path style="fill:#2B2150;" d="M738.146,778.917L738.146,778.917c-5.294,0-10.265-4.505-12.084-10.954
				c-0.984-3.488-0.904-7.085,0.226-10.128c1.227-3.304,3.636-5.68,6.607-6.517c0.794-0.224,1.616-0.337,2.445-0.337
				c5.293,0,10.263,4.504,12.082,10.953c2.157,7.643-0.844,14.956-6.833,16.646C739.797,778.804,738.975,778.917,738.146,778.917z
				 M735.341,756.582c-0.315,0-0.626,0.042-0.924,0.126c-1.687,0.476-2.527,2.131-2.877,3.076c-0.711,1.911-0.742,4.338-0.087,6.659
				c1.107,3.919,3.986,6.874,6.695,6.874l0,0c0.315,0,0.625-0.042,0.923-0.126c2.868-0.81,4.225-5.269,2.964-9.736
				C740.927,759.535,738.05,756.582,735.341,756.582z"/>
			<g>
				<path style="fill:#E894B1;" d="M849.911,585.004c0,4.94-3.982,8.961-8.923,8.961c-1.609,0-3.102-0.421-4.404-1.148
					c0.039-0.077,0.077-0.115,0.115-0.192c1.417-3.331,2.796-6.664,4.213-9.957c0.498-1.188,0.996-2.375,1.762-3.408
					c0.651-0.843,1.417-1.57,2.144-2.375C847.843,578.34,849.911,581.442,849.911,585.004z"/>
				<path style="fill:#E894B1;" d="M929.211,582.146c0,4.94-3.983,8.961-8.923,8.961c-3.791,0-6.97-2.298-8.31-5.591
					c0.115-0.039,0.451,0.914,0.306-0.153c4.404-2.26,6.648-4.545,10.991-9.613c0.415-0.484,0.69-1.11,0.919-1.685
					C927.181,575.558,929.211,578.622,929.211,582.146z"/>
				<path style="fill:#E894B1;" d="M977.631,591.859c-1.57,1.34-3.562,2.106-5.745,2.106c-4.94,0-8.961-4.021-8.961-8.961
					c0-1.57,0.383-3.026,1.11-4.29C969.282,583.166,974.605,586.651,977.631,591.859z"/>
			</g>
			<g>
				<path style="fill:#E894B1;" d="M868.022,608.107c0,3.198-2.592,5.79-5.79,5.79c-3.198,0-5.79-2.592-5.79-5.79
					c0-3.198,2.592-5.79,5.79-5.79C865.431,602.317,868.022,604.909,868.022,608.107z"/>
				<path style="fill:#E894B1;" d="M910.545,608.107c0,3.198-2.592,5.79-5.79,5.79s-5.79-2.592-5.79-5.79
					c0-3.198,2.592-5.79,5.79-5.79S910.545,604.909,910.545,608.107z"/>
				<path style="fill:#E894B1;" d="M953.068,608.107c0,3.198-2.592,5.79-5.79,5.79c-3.198,0-5.79-2.592-5.79-5.79
					c0-3.198,2.592-5.79,5.79-5.79C950.476,602.317,953.068,604.909,953.068,608.107z"/>
			</g>
			<g>
				<path style="fill:#E894B1;" d="M849.928,631.212c0,4.947-4.01,8.956-8.956,8.956c-4.946,0-8.956-4.01-8.956-8.956
					c0-4.946,4.01-8.956,8.956-8.956C845.918,622.256,849.928,626.266,849.928,631.212z"/>
				<path style="fill:#E894B1;" d="M893.568,631.212c0,4.947-4.01,8.956-8.957,8.956c-4.946,0-8.956-4.01-8.956-8.956
					c0-4.946,4.01-8.956,8.956-8.956C889.558,622.256,893.568,626.266,893.568,631.212z"/>
				<path style="fill:#E894B1;" d="M937.208,631.212c0,4.947-4.01,8.956-8.957,8.956c-4.946,0-8.956-4.01-8.956-8.956
					c0-4.946,4.01-8.956,8.956-8.956C933.198,622.256,937.208,626.266,937.208,631.212z"/>
				<path style="fill:#E894B1;" d="M980.848,631.212c0,4.947-4.01,8.956-8.956,8.956c-4.946,0-8.956-4.01-8.956-8.956
					c0-4.946,4.01-8.956,8.956-8.956C976.838,622.256,980.848,626.266,980.848,631.212z"/>
			</g>
			<g>
				<path style="fill:#E894B1;" d="M825.5,654.318c0,3.197-2.592,5.789-5.789,5.789c-3.198,0-5.79-2.592-5.79-5.789
					c0-3.198,2.592-5.79,5.79-5.79C822.908,648.528,825.5,651.121,825.5,654.318z"/>
				<path style="fill:#E894B1;" d="M868.022,654.318c0,3.197-2.592,5.789-5.79,5.789c-3.198,0-5.79-2.592-5.79-5.789
					c0-3.198,2.592-5.79,5.79-5.79C865.431,648.528,868.022,651.121,868.022,654.318z"/>
				<path style="fill:#E894B1;" d="M910.545,654.318c0,3.197-2.592,5.789-5.79,5.789s-5.79-2.592-5.79-5.789
					c0-3.198,2.592-5.79,5.79-5.79S910.545,651.121,910.545,654.318z"/>
				<path style="fill:#E894B1;" d="M953.068,654.318c0,3.197-2.592,5.789-5.79,5.789c-3.198,0-5.79-2.592-5.79-5.789
					c0-3.198,2.592-5.79,5.79-5.79C950.476,648.528,953.068,651.121,953.068,654.318z"/>
			</g>
			<g>
				<path style="fill:#E894B1;" d="M849.928,677.424c0,4.946-4.01,8.957-8.956,8.957c-4.946,0-8.956-4.01-8.956-8.957
					c0-4.946,4.01-8.956,8.956-8.956C845.918,668.468,849.928,672.477,849.928,677.424z"/>
				<path style="fill:#E894B1;" d="M893.568,677.424c0,4.946-4.01,8.957-8.957,8.957c-4.946,0-8.956-4.01-8.956-8.957
					c0-4.946,4.01-8.956,8.956-8.956C889.558,668.468,893.568,672.477,893.568,677.424z"/>
				<path style="fill:#E894B1;" d="M937.208,677.424c0,4.946-4.01,8.957-8.957,8.957c-4.946,0-8.956-4.01-8.956-8.957
					c0-4.946,4.01-8.956,8.956-8.956C933.198,668.468,937.208,672.477,937.208,677.424z"/>
				<path style="fill:#E894B1;" d="M980.848,677.424c0,4.946-4.01,8.957-8.956,8.957c-4.946,0-8.956-4.01-8.956-8.957
					c0-4.946,4.01-8.956,8.956-8.956C976.838,668.468,980.848,672.477,980.848,677.424z"/>
			</g>
			<g>
				<path style="fill:#E894B1;" d="M868.025,700.546c0,1.072-0.307,2.068-0.843,2.911c-0.344-0.115-0.728-0.153-1.072-0.23
					c-3.408-0.498-6.281-3.064-9.574-3.638c0.46-2.758,2.796-4.864,5.707-4.864C865.421,694.725,868.025,697.329,868.025,700.546z"
					/>
				<path style="fill:#E894B1;" d="M910.545,700.53c0,3.197-2.592,5.789-5.79,5.789s-5.79-2.592-5.79-5.789
					c0-3.198,2.592-5.79,5.79-5.79S910.545,697.332,910.545,700.53z"/>
				<path style="fill:#E894B1;" d="M953.068,700.53c0,3.197-2.592,5.789-5.79,5.789c-3.198,0-5.79-2.592-5.79-5.789
					c0-3.198,2.592-5.79,5.79-5.79C950.476,694.74,953.068,697.332,953.068,700.53z"/>
				<path style="fill:#E894B1;" d="M995.591,700.53c0,3.197-2.592,5.789-5.79,5.789c-3.198,0-5.79-2.592-5.79-5.789
					c0-3.198,2.592-5.79,5.79-5.79C992.999,694.74,995.591,697.332,995.591,700.53z"/>
			</g>
			<g>
				<path style="fill:#E894B1;" d="M893.568,723.635c0,4.946-4.01,8.956-8.957,8.956c-4.946,0-8.956-4.01-8.956-8.956
					c0-4.946,4.01-8.957,8.956-8.957C889.558,714.679,893.568,718.689,893.568,723.635z"/>
				<path style="fill:#E894B1;" d="M937.208,723.635c0,4.946-4.01,8.956-8.957,8.956c-4.946,0-8.956-4.01-8.956-8.956
					c0-4.946,4.01-8.957,8.956-8.957C933.198,714.679,937.208,718.689,937.208,723.635z"/>
				<path style="fill:#E894B1;" d="M980.848,723.635c0,4.946-4.01,8.956-8.956,8.956c-4.946,0-8.956-4.01-8.956-8.956
					c0-4.946,4.01-8.957,8.956-8.957C976.838,714.679,980.848,718.689,980.848,723.635z"/>
			</g>
			<g>
				<path style="fill:#E894B1;" d="M868.022,746.741c0,3.197-2.592,5.79-5.79,5.79c-3.198,0-5.79-2.592-5.79-5.79
					c0-3.198,2.592-5.79,5.79-5.79C865.431,740.951,868.022,743.544,868.022,746.741z"/>
				<path style="fill:#E894B1;" d="M910.545,746.741c0,3.197-2.592,5.79-5.79,5.79s-5.79-2.592-5.79-5.79
					c0-3.198,2.592-5.79,5.79-5.79S910.545,743.544,910.545,746.741z"/>
				<path style="fill:#E894B1;" d="M953.068,746.741c0,3.197-2.592,5.79-5.79,5.79c-3.198,0-5.79-2.592-5.79-5.79
					c0-3.198,2.592-5.79,5.79-5.79C950.476,740.951,953.068,743.544,953.068,746.741z"/>
				<path style="fill:#E894B1;" d="M995.591,746.741c0,3.197-2.592,5.79-5.79,5.79c-3.198,0-5.79-2.592-5.79-5.79
					c0-3.198,2.592-5.79,5.79-5.79C992.999,740.951,995.591,743.544,995.591,746.741z"/>
			</g>
			<g>
				<path style="fill:#E894B1;" d="M848.199,770.172c0,3.332-1.838,6.243-4.557,7.736v-0.23c-0.191-4.979-0.345-9.957-0.996-14.897
					c-0.038-0.344-0.077-0.69-0.153-0.996C845.825,763.087,848.199,766.342,848.199,770.172z"/>
				<path style="fill:#E894B1;" d="M893.568,769.847c0,4.946-4.01,8.957-8.957,8.957c-4.946,0-8.956-4.01-8.956-8.957
					c0-4.946,4.01-8.957,8.956-8.957C889.558,760.89,893.568,764.9,893.568,769.847z"/>
				<path style="fill:#E894B1;" d="M937.208,769.847c0,4.946-4.01,8.957-8.957,8.957c-4.946,0-8.956-4.01-8.956-8.957
					c0-4.946,4.01-8.957,8.956-8.957C933.198,760.89,937.208,764.9,937.208,769.847z"/>
				<path style="fill:#E894B1;" d="M976.293,766.419c-0.077,3.945,0.536,7.928,1.762,11.681c-1.072,0.421-2.26,0.69-3.523,0.69
					c-4.941,0-8.962-3.983-8.962-8.923c0-4.979,4.021-8.961,8.962-8.961c2.949,0,5.591,1.417,7.2,3.638
					C979.854,765.002,978.055,765.653,976.293,766.419z"/>
			</g>
			<g>
				<path style="fill:#E894B1;" d="M868.025,793.852c0,1.532-0.613,2.949-1.57,3.983l-8.655-0.306
					c-0.842-0.996-1.34-2.259-1.34-3.676c0-3.217,2.566-5.783,5.783-5.783C865.421,788.069,868.025,790.635,868.025,793.852z"/>
				<path style="fill:#E894B1;" d="M910.545,792.952c0,3.198-2.592,5.79-5.79,5.79s-5.79-2.592-5.79-5.79
					c0-3.197,2.592-5.789,5.79-5.789S910.545,789.755,910.545,792.952z"/>
				<path style="fill:#E894B1;" d="M953.068,792.952c0,3.198-2.592,5.79-5.79,5.79c-3.198,0-5.79-2.592-5.79-5.79
					c0-3.197,2.592-5.789,5.79-5.789C950.476,787.163,953.068,789.755,953.068,792.952z"/>
			</g>
			<g>
				<path style="fill:#E894B1;" d="M893.569,816.049c0,4.94-4.021,8.962-8.961,8.962c-4.787,0-8.693-3.753-8.923-8.464l16.736-4.864
					C893.148,812.985,893.569,814.479,893.569,816.049z"/>
				<path style="fill:#E894B1;" d="M937.208,816.058c0,4.946-4.01,8.956-8.957,8.956c-4.946,0-8.956-4.01-8.956-8.956
					s4.01-8.956,8.956-8.956C933.198,807.102,937.208,811.112,937.208,816.058z"/>
				<path style="fill:#E894B1;" d="M980.848,816.058c0,4.946-4.01,8.956-8.956,8.956c-4.946,0-8.956-4.01-8.956-8.956
					s4.01-8.956,8.956-8.956C976.838,807.102,980.848,811.112,980.848,816.058z"/>
			</g>
			<g>
				<path style="fill:#E894B1;" d="M740.454,839.164c0,3.198-2.592,5.79-5.79,5.79c-3.198,0-5.79-2.592-5.79-5.79
					c0-3.197,2.592-5.79,5.79-5.79C737.862,833.374,740.454,835.966,740.454,839.164z"/>
				<path style="fill:#E894B1;" d="M782.977,839.164c0,3.198-2.592,5.79-5.79,5.79c-3.198,0-5.79-2.592-5.79-5.79
					c0-3.197,2.592-5.79,5.79-5.79C780.385,833.374,782.977,835.966,782.977,839.164z"/>
				<path style="fill:#E894B1;" d="M825.5,839.164c0,3.198-2.592,5.79-5.789,5.79c-3.198,0-5.79-2.592-5.79-5.79
					c0-3.197,2.592-5.79,5.79-5.79C822.908,833.374,825.5,835.966,825.5,839.164z"/>
				<path style="fill:#E894B1;" d="M868.022,839.164c0,3.198-2.592,5.79-5.79,5.79c-3.198,0-5.79-2.592-5.79-5.79
					c0-3.197,2.592-5.79,5.79-5.79C865.431,833.374,868.022,835.966,868.022,839.164z"/>
				<path style="fill:#E894B1;" d="M910.545,839.164c0,3.198-2.592,5.79-5.79,5.79s-5.79-2.592-5.79-5.79
					c0-3.197,2.592-5.79,5.79-5.79S910.545,835.966,910.545,839.164z"/>
				<path style="fill:#E894B1;" d="M953.068,839.164c0,3.198-2.592,5.79-5.79,5.79c-3.198,0-5.79-2.592-5.79-5.79
					c0-3.197,2.592-5.79,5.79-5.79C950.476,833.374,953.068,835.966,953.068,839.164z"/>
				<path style="fill:#E894B1;" d="M995.591,839.164c0,3.198-2.592,5.79-5.79,5.79c-3.198,0-5.79-2.592-5.79-5.79
					c0-3.197,2.592-5.79,5.79-5.79C992.999,833.374,995.591,835.966,995.591,839.164z"/>
			</g>
			<g>
				<path style="fill:#E894B1;" d="M762.648,862.269c0,4.946-4.01,8.956-8.956,8.956c-4.947,0-8.956-4.01-8.956-8.956
					c0-4.947,4.01-8.956,8.956-8.956C758.638,853.313,762.648,857.323,762.648,862.269z"/>
				<path style="fill:#E894B1;" d="M806.288,862.269c0,4.946-4.01,8.956-8.956,8.956c-4.946,0-8.956-4.01-8.956-8.956
					c0-4.947,4.01-8.956,8.956-8.956C802.278,853.313,806.288,857.323,806.288,862.269z"/>
				<path style="fill:#E894B1;" d="M849.928,862.269c0,4.946-4.01,8.956-8.956,8.956c-4.946,0-8.956-4.01-8.956-8.956
					c0-4.947,4.01-8.956,8.956-8.956C845.918,853.313,849.928,857.323,849.928,862.269z"/>
				<path style="fill:#E894B1;" d="M893.568,862.269c0,4.946-4.01,8.956-8.957,8.956c-4.946,0-8.956-4.01-8.956-8.956
					c0-4.947,4.01-8.956,8.956-8.956C889.558,853.313,893.568,857.323,893.568,862.269z"/>
				<path style="fill:#E894B1;" d="M937.208,862.269c0,4.946-4.01,8.956-8.957,8.956c-4.946,0-8.956-4.01-8.956-8.956
					c0-4.947,4.01-8.956,8.956-8.956C933.198,853.313,937.208,857.323,937.208,862.269z"/>
				<path style="fill:#E894B1;" d="M980.848,862.269c0,4.946-4.01,8.956-8.956,8.956c-4.946,0-8.956-4.01-8.956-8.956
					c0-4.947,4.01-8.956,8.956-8.956C976.838,853.313,980.848,857.323,980.848,862.269z"/>
			</g>
			<g>
				<path style="fill:#E894B1;" d="M740.454,885.375c0,3.198-2.592,5.79-5.79,5.79c-3.198,0-5.79-2.592-5.79-5.79
					s2.592-5.79,5.79-5.79C737.862,879.585,740.454,882.177,740.454,885.375z"/>
				<path style="fill:#E894B1;" d="M782.977,885.375c0,3.198-2.592,5.79-5.79,5.79c-3.198,0-5.79-2.592-5.79-5.79
					s2.592-5.79,5.79-5.79C780.385,879.585,782.977,882.177,782.977,885.375z"/>
				<path style="fill:#E894B1;" d="M825.5,885.375c0,3.198-2.592,5.79-5.789,5.79c-3.198,0-5.79-2.592-5.79-5.79
					s2.592-5.79,5.79-5.79C822.908,879.585,825.5,882.177,825.5,885.375z"/>
				<path style="fill:#E894B1;" d="M868.022,885.375c0,3.198-2.592,5.79-5.79,5.79c-3.198,0-5.79-2.592-5.79-5.79
					s2.592-5.79,5.79-5.79C865.431,879.585,868.022,882.177,868.022,885.375z"/>
				<path style="fill:#E894B1;" d="M910.545,885.375c0,3.198-2.592,5.79-5.79,5.79s-5.79-2.592-5.79-5.79s2.592-5.79,5.79-5.79
					S910.545,882.177,910.545,885.375z"/>
				<path style="fill:#E894B1;" d="M953.068,885.375c0,3.198-2.592,5.79-5.79,5.79c-3.198,0-5.79-2.592-5.79-5.79
					s2.592-5.79,5.79-5.79C950.476,879.585,953.068,882.177,953.068,885.375z"/>
			</g>
			<g>
				<path style="fill:#E894B1;" d="M719.007,908.481c0,4.947-4.01,8.956-8.956,8.956c-4.947,0-8.957-4.01-8.957-8.956
					c0-4.946,4.01-8.956,8.957-8.956C714.998,899.524,719.007,903.534,719.007,908.481z"/>
				<path style="fill:#E894B1;" d="M762.648,908.481c0,4.947-4.01,8.956-8.956,8.956c-4.947,0-8.956-4.01-8.956-8.956
					c0-4.946,4.01-8.956,8.956-8.956C758.638,899.524,762.648,903.534,762.648,908.481z"/>
				<path style="fill:#E894B1;" d="M806.288,908.481c0,4.947-4.01,8.956-8.956,8.956c-4.946,0-8.956-4.01-8.956-8.956
					c0-4.946,4.01-8.956,8.956-8.956C802.278,899.524,806.288,903.534,806.288,908.481z"/>
				<path style="fill:#E894B1;" d="M849.928,908.481c0,4.947-4.01,8.956-8.956,8.956c-4.946,0-8.956-4.01-8.956-8.956
					c0-4.946,4.01-8.956,8.956-8.956C845.918,899.524,849.928,903.534,849.928,908.481z"/>
				<path style="fill:#E894B1;" d="M893.263,910.642c-5.821,0.23-11.719,0.383-17.233,0.46c-2.106-7.315,4.94-13.863,12.37-10.799
					c1.954,0.804,3.562,2.451,4.404,4.404C893.646,906.774,893.761,908.842,893.263,910.642z"/>
				<path style="fill:#E894B1;" d="M937.19,908.306c-5.859,0.536-11.834,0.766-17.847,1.034c-0.612-6.587,5.898-11.834,12.677-9.038
					c1.991,0.804,3.6,2.451,4.404,4.404C936.921,905.932,937.151,907.157,937.19,908.306z"/>
			</g>
			<g>
				<path style="fill:#E894B1;" d="M740.454,931.586c0,3.198-2.592,5.79-5.79,5.79c-3.198,0-5.79-2.592-5.79-5.79
					s2.592-5.79,5.79-5.79C737.862,925.796,740.454,928.389,740.454,931.586z"/>
				<path style="fill:#E894B1;" d="M782.977,931.586c0,3.198-2.592,5.79-5.79,5.79c-3.198,0-5.79-2.592-5.79-5.79
					s2.592-5.79,5.79-5.79C780.385,925.796,782.977,928.389,782.977,931.586z"/>
				<path style="fill:#E894B1;" d="M825.5,931.586c0,3.198-2.592,5.79-5.789,5.79c-3.198,0-5.79-2.592-5.79-5.79
					s2.592-5.79,5.79-5.79C822.908,925.796,825.5,928.389,825.5,931.586z"/>
				<path style="fill:#E894B1;" d="M697.949,931.591c0,3.179-2.604,5.783-5.821,5.783c-2.221,0-4.174-1.264-5.093-3.14
					c0.881-2.604,1.762-5.247,2.681-7.889c0.728-0.345,1.57-0.536,2.412-0.536C695.345,925.808,697.949,928.374,697.949,931.591z"/>
			</g>
			<g>
				<path style="fill:#E894B1;" d="M719.007,954.692c0,4.947-4.01,8.956-8.956,8.956c-4.947,0-8.957-4.01-8.957-8.956
					c0-4.946,4.01-8.956,8.957-8.956C714.998,945.736,719.007,949.746,719.007,954.692z"/>
				<path style="fill:#E894B1;" d="M762.648,954.692c0,4.947-4.01,8.956-8.956,8.956c-4.947,0-8.956-4.01-8.956-8.956
					c0-4.946,4.01-8.956,8.956-8.956C758.638,945.736,762.648,949.746,762.648,954.692z"/>
				<path style="fill:#E894B1;" d="M806.288,954.692c0,4.947-4.01,8.956-8.956,8.956c-4.946,0-8.956-4.01-8.956-8.956
					c0-4.946,4.01-8.956,8.956-8.956C802.278,945.736,806.288,949.746,806.288,954.692z"/>
				<path style="fill:#E894B1;" d="M849.928,954.692c0,4.947-4.01,8.956-8.956,8.956c-4.946,0-8.956-4.01-8.956-8.956
					c0-4.946,4.01-8.956,8.956-8.956C845.918,945.736,849.928,949.746,849.928,954.692z"/>
			</g>
			<g>
				<path style="fill:#E894B1;" d="M740.454,977.798c0,3.198-2.592,5.789-5.79,5.789c-3.198,0-5.79-2.592-5.79-5.789
					c0-3.198,2.592-5.79,5.79-5.79C737.862,972.008,740.454,974.6,740.454,977.798z"/>
				<path style="fill:#E894B1;" d="M782.977,977.798c0,3.198-2.592,5.789-5.79,5.789c-3.198,0-5.79-2.592-5.79-5.789
					c0-3.198,2.592-5.79,5.79-5.79C780.385,972.008,782.977,974.6,782.977,977.798z"/>
				<path style="fill:#E894B1;" d="M825.5,977.798c0,3.198-2.592,5.789-5.789,5.789c-3.198,0-5.79-2.592-5.79-5.789
					c0-3.198,2.592-5.79,5.79-5.79C822.908,972.008,825.5,974.6,825.5,977.798z"/>
				<path style="fill:#E894B1;" d="M865.613,982.487c-0.958,0.69-2.107,1.11-3.37,1.11c-3.217,0-5.783-2.604-5.783-5.783
					c0-3.217,2.566-5.821,5.783-5.821c0.842,0,1.608,0.191,2.336,0.498C864.961,975.785,865.306,979.155,865.613,982.487z"/>
				<path style="fill:#E894B1;" d="M697.931,977.798c0,3.198-2.592,5.789-5.79,5.789c-3.198,0-5.789-2.592-5.789-5.789
					c0-3.198,2.592-5.79,5.789-5.79C695.339,972.008,697.931,974.6,697.931,977.798z"/>
			</g>
			<g>
				<path style="fill:#E894B1;" d="M719.012,1000.908c0,1.072-0.191,2.067-0.498,3.025c-5.859-1.034-11.681-2.144-17.425-3.37
					c0.191-4.788,4.136-8.617,8.961-8.617C714.991,991.946,719.012,995.968,719.012,1000.908z"/>
				<path style="fill:#E894B1;" d="M762.646,1000.89c0,3.809-2.315,7.021-5.675,8.327c-2.764-0.262-5.527-0.56-8.29-0.896
					c-2.39-1.606-3.958-4.331-3.958-7.431c0-4.929,4.033-8.924,8.962-8.924C758.65,991.965,762.646,995.961,762.646,1000.89z"/>
				<path style="fill:#E894B1;" d="M806.288,1000.903c0,4.946-4.01,8.956-8.956,8.956c-4.946,0-8.956-4.01-8.956-8.956
					c0-4.946,4.01-8.956,8.956-8.956C802.278,991.947,806.288,995.957,806.288,1000.903z"/>
				<path style="fill:#E894B1;" d="M849.911,1000.908c0,1.876-0.574,3.6-1.532,5.017c-4.06,0.881-8.272,1.646-12.562,2.298
					c-2.297-1.608-3.791-4.289-3.791-7.315c0-4.94,3.982-8.962,8.961-8.962C845.928,991.946,849.911,995.968,849.911,1000.908z"/>
			</g>
		</g>
	</g>
	<path style="fill:#2B2150;" d="M885.322,686.532c-0.011,0-0.026,0-0.037,0c-5.076-0.102-10.046-0.647-14.771-1.621
		c-3.456-0.711-5.794-0.871-9.029-1.09l-2.76-0.197c-2.819-0.211-6.987,0.073-11.016,0.355c-3.949,0.275-7.669,0.54-10.526,0.387
		c-1.028-0.057-1.819-0.935-1.765-1.966c0.057-1.028,0.91-1.805,1.965-1.765c2.615,0.142,6.405-0.124,10.064-0.381
		c4.163-0.292,8.467-0.594,11.563-0.354l2.728,0.195c3.254,0.22,5.825,0.396,9.528,1.158c4.504,0.928,9.244,1.448,14.09,1.544
		c1.032,0.021,1.852,0.873,1.831,1.904C887.167,685.721,886.336,686.532,885.322,686.532z"/>
	<path style="fill:#2B2150;" d="M743.746,994.714c-0.932-5.389-1.65-10.822-2.527-16.221c-1.625-9.999-3.349-19.983-5.156-29.951
		c-3.983-21.996-5.887-35.588-7.273-51.949c-0.088-1.026,0.675-1.931,1.703-2.016c1.032-0.108,1.931,0.674,2.017,1.703
		c1.375,16.227,3.267,29.73,7.229,51.595c5.368,29.616,6.75,40.079,7.204,44.311c0.02,0.185,0.035,1.696-0.066,1.993
		C746.317,995.822,744.041,995.285,743.746,994.714z"/>
	<path style="fill:#2B2150;" d="M729.769,886.841c-0.972,0-1.792-0.751-1.859-1.736c-0.312-4.414-0.616-9.133-0.939-14.307
		c-0.064-1.03,0.718-1.916,1.747-1.98c1.054-0.062,1.916,0.718,1.98,1.747c0.323,5.164,0.627,9.875,0.936,14.278
		c0.073,1.028-0.702,1.921-1.73,1.993C729.856,886.839,729.813,886.841,729.769,886.841z"/>
	<path style="fill:#F5AE9E;" d="M941.656,480.739c-4.667,15.87-8.514,12.919-11.799,34.652c0.224-0.187,0.485-0.374,0.71-0.598
		c-3.772,7.169-8.813,14.115-14.601,20.201c1.569,16.056,7.991,30.32,7.991,30.32c0.971,9.634-7.319,17.475-7.319,17.475
		c-20.948,15.421-43.016,7.991-44.846-9.485l-0.187-0.298l1.345-17.027c-17.7-0.971-30.918-14.488-39.432-33.42
		c-2.315-5.227-4.332-10.94-5.975-16.952c-1.531-5.601-2.726-11.539-3.585-17.55c-1.83-12.77-2.353-23.823-1.12-33.27
		c0.037,0,0.037,0.038,0.037,0.038c2.577,3.92,8.999,6.31,13.331,8.065c11.277,4.518,26.699-2.651,38.722-4.593
		c27.408-4.332,43.352,20.276,43.352,20.276C922.836,461.21,946.435,464.346,941.656,480.739z"/>
	<path style="fill:#2B2150;" d="M863.589,535.147c-2.837-0.011-5.66-0.55-8.275-1.669c-1.389-0.595-2.785-1.413-3.49-2.749
		c-1.87-3.545,2.093-4.878,4.647-3.223c4.415,2.862,10.308,2.919,14.813,0.05c1.121-0.714,2.157-1.599,3.408-2.047
		c2.542-0.912,5.384,1.197,3.668,4.045c-0.61,1.013-1.618,1.715-2.637,2.315C872.07,534.012,867.813,535.164,863.589,535.147z"/>
	<path style="fill:#4B3584;" d="M1022.685,540.782c-13.48,5.191-28.155,8.29-42.456,6.162c-14.264-2.091-28.118-10.12-34.54-22.741
		c-3.024-5.899-4.294-12.434-5.004-19.043c-3.323,3.697-6.982,7.095-10.828,10.231c2.763-18.334,5.937-19.118,9.671-28.416
		c0.71-1.755,1.419-3.772,2.128-6.236c1.643-5.638-0.075-9.671-3.174-11.912c-6.012-4.219-17.214-1.643-20.201,9.746
		c0,0-15.944-24.607-43.352-20.276c-12.023,1.941-27.445,9.111-38.722,4.593c-4.331-1.755-10.754-4.145-13.331-8.065
		c-8.401-12.883,6.049-29.984,17.774-35.324c2.166-1.008,10.194-16.243,35.81-23.3c17.998-4.929,36.556-4.705,52.613,5.452
		c0.187,0.112,0.374,0.261,0.56,0.374c0.187-0.149,0.336-0.262,0.523-0.374c0.224-0.112,0.448-0.262,0.635-0.374
		c10.866-6.758,24.868-8.439,37.041-4.481c21.247,6.871,29.387,26.811,30.694,47.161c0.672,10.567-0.224,21.172-1.643,31.627
		c-1.568,11.799-6.012,24.869-3.398,36.668C996.509,525.92,1009.615,535.069,1022.685,540.782z"/>
	<path style="fill:#2B2150;" d="M906.162,440.013c-0.405,0-0.814-0.131-1.156-0.401c-4.317-3.41-9.689-5.111-16.42-5.202
		c-1.032-0.015-1.856-0.861-1.841-1.893c0.015-1.032,0.853-1.991,1.893-1.842c7.584,0.104,13.696,2.068,18.681,6.004
		c0.81,0.64,0.948,1.814,0.31,2.622C907.259,439.769,906.712,440.013,906.162,440.013z"/>
	<path style="fill:#2B2150;" d="M985.474,536.075c-14.218,0-23.662-11.02-28.147-17.848c-0.565-0.86-0.325-2.019,0.536-2.586
		c0.857-0.563,2.017-0.33,2.586,0.536c4.285,6.518,13.576,17.257,27.166,16.068c1.039-0.084,1.936,0.669,2.024,1.696
		c0.091,1.028-0.667,1.933-1.696,2.023C987.104,536.039,986.283,536.075,985.474,536.075z"/>
	<path style="fill:#EE7E94;" d="M876.32,511.973c0.625,7.317,7.063,12.744,14.381,12.119c7.317-0.625,12.744-7.063,12.119-14.38
		c-0.624-7.318-7.063-12.744-14.38-12.119C881.121,498.217,875.695,504.655,876.32,511.973z"/>
	<path style="fill:#2B2150;" d="M926.867,491.101c-0.398,0-0.795-0.124-1.134-0.383c-0.817-0.625-0.978-1.796-0.35-2.617
		c2.421-3.172,4.193-7.085,4.04-8.905c-0.088-1.028,0.675-1.931,1.703-2.018c0.915-0.12,1.925,0.671,2.017,1.701
		c0.277,3.234-2.206,8.101-4.792,11.486C927.982,490.847,927.428,491.101,926.867,491.101z"/>
	<path style="fill:#2B2150;" d="M836.136,496.251c-1.438,0-2.662-1.103-2.786-2.563l-0.35-4.11c-0.131-1.54,1.01-2.896,2.553-3.026
		c1.489-0.168,2.895,1.01,3.026,2.552l0.35,4.11c0.131,1.541-1.01,2.895-2.553,3.026
		C836.296,496.248,836.216,496.251,836.136,496.251z"/>
	<path style="fill:#2B2150;" d="M881.843,494.724c-1.44,0-2.662-1.104-2.786-2.564l-0.321-3.785
		c-0.131-1.543,1.01-2.897,2.553-3.029c1.524-0.098,2.895,1.012,3.026,2.555l0.321,3.785c0.131,1.542-1.01,2.897-2.552,3.028
		C882.004,494.72,881.923,494.724,881.843,494.724z"/>
	<path style="fill:#EE7E94;" d="M829.97,503.843c0.268,1,0.571,1.996,0.874,2.992c1.777,5.941,3.903,11.57,6.325,16.74
		c0.775,1.664,1.581,3.285,2.413,4.826c5.494-1.844,9.093-7.775,8.278-14.221c-0.925-7.313-7.132-12.501-13.849-11.652
		C832.549,502.713,831.19,503.153,829.97,503.843z"/>
	<path style="fill:#4B3584;" d="M1034.811,1506.919l-28.11-32.665l-28.11,32.665c-1.109,1.289-2.726,0.108-2.726-1.989v-134.332
		h61.672v134.332C1037.536,1507.027,1035.92,1508.208,1034.811,1506.919z"/>
	<rect x="1366.707" y="1088.627" style="fill:#E894B1;" width="76.548" height="179.7"/>
	<rect x="471.53" y="1089.41" style="fill:#E894B1;" width="76.548" height="178.917"/>
	<rect x="1310.697" y="1088.627" style="fill:#E894B1;" width="27.352" height="179.7"/>
	<path style="fill:#2B2150;" d="M996.346,1352.742h1.865H781.11c-1.032,0-0.002-1.043,0-2.071c0.002-1.032,0.837-1.663,1.867-1.663
		h0.002h215.232c1.032,0,1.867,0.839,1.867,1.867C1000.078,1351.907,997.378,1352.742,996.346,1352.742z"/>
	<path style="fill:#2B2150;" d="M763.658,1352.49h-0.002l-53.668-0.059c-1.032,0-1.867-0.838-1.865-1.87
		c0.002-1.028,0.837-1.863,1.867-1.863h0.002l53.668,0.059c1.032,0,1.867,0.838,1.865,1.87
		C765.523,1351.655,764.688,1352.49,763.658,1352.49z"/>
	<path style="fill:#2B2150;" d="M1118.211,962.182c0,0,0,0-0.004,0H975.263c-1.028-0.002-1.863-1.043-1.863-2.073
		c0-1.03,0.839-1.661,1.867-1.661c0,0,0,0,0.003,0h142.943c1.028,0.001,1.863,0.838,1.863,1.869
		C1120.077,961.347,1119.239,962.182,1118.211,962.182z"/>
	<path style="fill:#2B2150;" d="M962.435,961.93h-0.004l-35.641-0.059c-1.032-0.002-1.863-0.838-1.863-1.871
		c0-1.03,0.839-1.863,1.867-1.863h0.003l35.641,0.058c1.032,0.002,1.863,0.839,1.863,1.871
		C964.302,961.097,963.463,961.93,962.435,961.93z"/>
	<path style="fill:#2B2150;" d="M1483.898,1024.676c0,0,0,0-0.004,0h-142.943c-1.028-0.002-1.863-1.041-1.863-2.071
		c0-1.03,0.838-1.663,1.866-1.663c0,0,0,0,0.004,0h142.943c1.028,0.002,1.863,0.839,1.863,1.869
		C1485.765,1023.841,1484.927,1024.676,1483.898,1024.676z"/>
	<path style="fill:#2B2150;" d="M1087.995,1317.498c0,0,0,0-0.003,0H799.773c-1.032-0.002-1.867-1.148-1.865-2.179
		c0.002-1.03,0.837-1.555,1.867-1.555h0.001h288.223c1.028,0.002,1.863,0.839,1.863,1.868
		C1089.862,1316.663,1089.027,1317.498,1087.995,1317.498z"/>
	<path style="fill:#108875;" d="M485.954,1586.013c-9.373-5.414-20.462-8.027-29.051-14.675
		c-20.761-16.094-19.678-48.467-34.689-69.677c0.934-7.206,3.249-13.181,10.53-15.944c-7.954-6.908-8.364-16.131-8.514-26.698
		c-0.112-10.567,10.343-21.284,20.239-17.736c-6.647-8.552-13.667-18.073-13.406-28.939c0.224-10.903,12.173-21.582,21.583-16.205
		c-9.26-15.235-25.989-22.591-23.711-37.9c1.157-7.692,14.563-12.285,25.093-12.285c-3.324-2.577-6.273-5.639-8.924-8.888
		c-8.066-9.97-15.272-24.309-12.36-37.489c3.51-16.131,21.695-6.572,27.557,2.838c5.377,8.663,14.488,38.572,14.488,38.572
		s13.778-13.555,24.943-1.456c13.181,14.227-7.804,37.564-1.792,56.048c14.189-9.11,19.305,2.128,20.238,9.261
		c0.971,7.132,0.448,19.902-4.817,34.689c-5.19,14.674-3.323,15.197,1.121,31.478c5.302-7.431,14.861-2.017,16.093,6.982
		c0.075,0.672,0.112,1.382,0.038,2.091c-5.377,10.941-8.962-6.46-18.11,3.137c-8.103,8.439-0.112,26.624-2.501,32.449
		c-4.892,11.949-13.144-7.244-20.799,7.58C478.897,1543.184,480.054,1566.111,485.954,1586.013z"/>
	<path style="fill:#2BB19E;" d="M567.767,1553.378c-6.086,31.813-23.673,63.964-33.083,75.95h-26.474
		c-0.822-0.859-1.606-1.793-2.427-2.764c4.406-14.861-2.763-28.229-15.459-37.676c-1.643-1.232-3.36-2.315-5.153-3.323
		c-5.377-19.38-6.086-41.373,3.846-60.566c7.692-14.824,15.944,4.331,20.835-7.617c2.353-5.825-5.638-23.973,2.465-32.449
		c11.09-11.575,14.002,16.318,21.844-14.264c6.46-25.392,27.558-39.768,27.558-39.768s6.049,11.837,2.987,35.585
		c-0.485,3.548-7.729,14.451-7.468,18.671c0.261,4.145,13.442-3.771,13.442,5.899c0,17.587-15.123,29.387-16.131,41.037
		C553.354,1545.798,570.082,1541.242,567.767,1553.378z"/>
	<path style="fill:#1D9A85;" d="M505.409,1627.797h-60.193c-5.862-19.043-20.612-33.42-37.975-44.285
		c-1.382-1.27-2.763-2.539-4.145-3.734c-14.525-12.621-31.254-24.495-38.162-42.456c-6.124-15.944-3.809-35.249-14.376-48.654
		c-10.045-12.733-19.006-26.475-25.839-41.187c-6.049-12.92-5.004-37.229-15.758-46.563c13.293-2.95,25.466,18.147,34.353,28.453
		c8.887,10.344,10.493,26.325,20.911,35.1c16.131,13.555,39.581,16.804,53.957,32.188c19.38,20.799,16.243,57.28,38.722,74.681
		c9.97,7.729,23.3,10.008,33.419,17.551C503.354,1598.597,510.599,1612.45,505.409,1627.797z"/>
	<path style="fill:#1D9A85;" d="M506.192,1625.108c-7.58-8.925-15.459-23.001-20.238-39.096c1.494,0.896,2.987,1.83,4.369,2.876
		C502.571,1598.037,509.74,1610.845,506.192,1625.108z"/>
	<path style="fill:#0A715D;" d="M328.973,1577.449c4.519,7.314,0.49,17.176,3.404,25.264c3.308,9.183,14.853,15.421,16.18,25.09
		h96.674c-8.984-29.105-38.639-47.316-66.819-58.882c-28.18-11.565-59.035-21.618-77.997-45.458
		c-11.875,11.686-8.266,34.799,6.608,42.306C314.563,1569.574,324.533,1570.264,328.973,1577.449z"/>
	<path style="fill:#2B2150;" d="M523.58,1533.752c-0.226,0-0.457-0.04-0.68-0.128c-0.961-0.376-1.435-1.459-1.059-2.421
		c2.489-6.356,6.87-16.089,10.733-24.673c1.783-3.964,3.438-7.64,4.707-10.542c0.41-0.941,1.508-1.382,2.458-0.963
		c0.944,0.412,1.377,1.514,0.962,2.458c-1.272,2.913-2.933,6.604-4.724,10.578c-3.845,8.548-8.205,18.233-10.659,24.505
		C525.029,1533.303,524.326,1533.752,523.58,1533.752z"/>
	<path style="fill:#2B2150;" d="M396.209,1525.332c-0.768,0-1.486-0.475-1.758-1.24c-3.543-9.922-15.842-33.081-31.245-41.322
		c-0.91-0.485-1.252-1.615-0.766-2.523c0.487-0.911,1.615-1.262,2.527-0.766c16.364,8.752,29.3,32.99,33,43.357
		c0.348,0.97-0.159,2.038-1.131,2.385C396.63,1525.295,396.417,1525.332,396.209,1525.332z"/>
	<path style="fill:#EB678C;" d="M200.268,1499.955c0,16.816,13.46,30.447,30.064,30.447c16.604,0,30.063-13.631,30.063-30.447
		c0-16.814-13.46-30.446-30.063-30.446C213.727,1469.509,200.268,1483.141,200.268,1499.955z"/>
	<path style="fill:#EB678C;" d="M587.929,1430.367c0,16.814,13.46,30.446,30.063,30.446c16.604,0,30.064-13.632,30.064-30.446
		c0-16.815-13.46-30.447-30.064-30.447C601.389,1399.92,587.929,1413.552,587.929,1430.367z"/>
	<ellipse style="fill:#A1D4F3;" cx="384.07" cy="1348.253" rx="30.063" ry="30.447"/>
	
		<ellipse transform="matrix(0.9732 -0.2298 0.2298 0.9732 -299.4329 124.302)" style="fill:#F7AF4D;" cx="384.07" cy="1347.996" rx="11.202" ry="11.202"/>
	<path style="fill:#2B2150;" d="M471.539,1422.835c-0.049,0-0.098-0.003-0.147-0.007c-1.028-0.08-1.796-0.978-1.716-2.006
		c1.067-13.564,1.911-29.536,0.093-45.18c-0.118-1.025,0.615-1.951,1.64-2.071c1.048-0.095,1.951,0.616,2.069,1.641
		c1.856,15.961,1.001,32.162-0.079,45.902C473.322,1422.092,472.503,1422.835,471.539,1422.835z"/>
	<path style="fill:#2B2150;" d="M471.81,1522.222c-0.899,0-1.69-0.649-1.842-1.564c-3.052-18.638-4.259-37.589-3.584-56.324
		c0.206-5.743,0.593-11.858,1.253-19.834c0.087-1.028,0.959-1.779,2.016-1.706c1.027,0.084,1.79,0.984,1.707,2.013
		c-0.656,7.917-1.039,13.98-1.245,19.658c-0.663,18.495,0.527,37.194,3.541,55.588c0.166,1.018-0.523,1.979-1.541,2.144
		C472.013,1522.214,471.911,1522.222,471.81,1522.222z"/>
	<g>
		<path style="fill:#F7AF4D;" d="M599.967,585.333c-10.542,11.563-17.242,26.049-19.473,41.447
			c-0.508,3.507-3.467,6.128-7.011,6.128h-63.518c-3.55,0-6.518-2.634-7.013-6.149c-2.208-15.678-8.832-29.581-19.713-41.552
			c-12.71-13.991-20.447-32.604-20.447-53.001c0-45.44,38.457-81.913,84.576-78.672c38.784,2.738,70.208,34.111,72.971,72.87
			C621.946,549.136,613.958,570.01,599.967,585.333z"/>
		<path style="fill:#C2DEF5;" d="M542.008,696.481h-0.681c-18.623,0-33.719-12.996-33.719-29.027v-21.737
			c0-1.109,0.899-2.009,2.009-2.009h64.102c1.109,0,2.009,0.899,2.009,2.009v21.737C575.727,683.485,560.63,696.481,542.008,696.481
			z"/>
		<path style="fill:#2A2150;" d="M542.008,699.282h-0.682c-20.136,0-36.518-14.278-36.518-31.829v-21.737
			c0-2.651,2.157-4.808,4.808-4.808h64.102c2.653,0,4.81,2.157,4.81,4.808v21.737C578.528,685.004,562.146,699.282,542.008,699.282z
			 M510.409,646.51v20.944c0,14.462,13.87,26.228,30.917,26.228h0.682c17.049,0,30.918-11.766,30.918-26.228V646.51H510.409z"/>
		<path style="fill:#2B2150;" d="M428.025,548.021H363.87c-1.032,0-1.867-0.835-1.867-1.867c0-1.032,0.835-1.867,1.867-1.867h64.155
			c1.032,0,1.867,0.835,1.867,1.867C429.892,547.186,429.057,548.021,428.025,548.021z"/>
		<path style="fill:#2B2150;" d="M719.466,548.021H655.31c-1.032,0-1.867-0.835-1.867-1.867c0-1.032,0.835-1.867,1.867-1.867h64.155
			c1.032,0,1.867,0.835,1.867,1.867C721.333,547.186,720.498,548.021,719.466,548.021z"/>
		<path style="fill:#2B2150;" d="M541.667,434.379c-1.032,0-1.867-0.835-1.867-1.867v-64.155c0-1.032,0.835-1.867,1.867-1.867
			c1.032,0,1.867,0.835,1.867,1.867v64.155C543.534,433.544,542.699,434.379,541.667,434.379z"/>
		<path style="fill:#2B2150;" d="M461.31,467.665c-0.478,0-0.955-0.183-1.32-0.547l-45.365-45.364c-0.729-0.729-0.729-1.911,0-2.64
			c0.73-0.729,1.911-0.729,2.64,0l45.365,45.365c0.729,0.729,0.729,1.911,0,2.64C462.266,467.482,461.788,467.665,461.31,467.665z"
			/>
		<path style="fill:#2B2150;" d="M622.025,467.665c-0.477,0-0.955-0.183-1.32-0.547c-0.729-0.729-0.729-1.911,0-2.64l45.365-45.365
			c0.729-0.729,1.911-0.729,2.64,0c0.73,0.729,0.73,1.911,0,2.64l-45.364,45.364C622.98,467.482,622.503,467.665,622.025,467.665z"
			/>
	</g>
	<path style="fill:#2B2150;" d="M623.143,526.219c-2.875-40.215-35.361-72.627-75.577-75.465
		c-47.721-3.398-87.564,34.465-87.564,81.439c0,20.388,7.505,39.879,21.172,54.89c10.493,11.538,16.878,25.018,19.006,40.066
		c0.672,4.891,4.892,8.551,9.783,8.551h63.516c4.966,0,9.074-3.584,9.783-8.514c2.203-15.085,8.663-28.901,18.782-39.954
		C617.243,570.58,624.748,548.885,623.143,526.219z M597.9,583.462c-10.866,11.874-17.849,26.736-20.164,42.904
		c-0.336,2.166-2.128,3.734-4.257,3.734h-29.947v-50.223l25.429-30.32c0.672-0.784,0.561-1.942-0.224-2.614
		c-0.784-0.672-1.979-0.561-2.614,0.224l-24.457,29.125l-24.421-29.125c-0.672-0.784-1.867-0.896-2.651-0.224
		c-0.784,0.672-0.896,1.829-0.224,2.614l25.429,30.32V630.1h-29.835c-2.166,0-3.92-1.568-4.257-3.734
		c-2.278-16.168-9.111-30.656-20.388-43.053c-12.733-14.002-19.716-32.15-19.716-51.119c0-41.933,34.129-76.063,76.063-76.063
		c1.83,0,3.659,0.075,5.489,0.187c37.453,2.651,67.735,32.86,70.387,70.275C619.035,547.727,612.053,567.928,597.9,583.462z"/>
	<path style="fill:#C5DFF5;" d="M1214.063,437.032c3.865-1.83,16.979-7.381,21.646-7.381c11.588,0,21.571,6.393,25.841,15.541
		c1.889,4.046,5.797,6.763,10.257,6.554c0.386-0.018,0.775-0.027,1.167-0.027c10.307,0,18.633,6.46,18.633,14.488
		c0,7.991-8.326,14.488-18.633,14.488c-7.355,0-150.145,0-166.612,0c-26.549,0-48.057-20.313-48.057-45.331
		c0-25.055,21.508-45.368,48.057-45.368c18.682,0,34.845,10.034,42.815,24.693c2.558,4.704,8.266,6.928,13.097,4.62
		c4.899-2.341,10.475-3.661,16.379-3.661c11.858,0,22.373,5.354,28.821,13.572L1214.063,437.032z"/>
	<path style="fill:#2B2150;" d="M1294.41,466.213c0,9.521-9.634,17.289-21.434,17.289h-166.612
		c-28.043,0-50.857-21.583-50.857-48.132c0-26.549,22.814-48.169,50.857-48.169c19.155,0,36.519,10.007,45.257,26.138
		c1.941,3.547,6.086,5.041,9.446,3.436c5.377-2.577,11.464-3.921,17.588-3.921c10.343,0,20.201,3.883,27.37,10.642
		c9.783,7.207,14.227,19.417,14.227,27.781c0,1.568-1.232,2.8-2.801,2.8c-1.53,0-2.8-1.232-2.8-2.8
		c0-4.78-2.129-12.958-7.655-19.342c-1.307-1.494-2.838-2.913-4.556-4.145c-0.187-0.149-0.373-0.299-0.522-0.485
		c-6.124-5.601-14.488-8.85-23.263-8.85c-5.303,0-10.53,1.157-15.16,3.398c-6.087,2.875-13.443,0.336-16.766-5.825
		c-7.805-14.339-23.264-23.226-40.365-23.226c-24.943,0-45.257,19.081-45.257,42.568c0,23.45,20.313,42.531,45.257,42.531h166.612
		c8.737,0,15.832-5.265,15.832-11.688c0-6.46-7.095-11.688-15.832-11.688h-1.045c-5.378,0.224-10.493-2.95-12.92-8.14
		c-3.958-8.477-13.106-13.928-23.301-13.928c-4.07,0-8.141,0.897-11.725,2.577c-1.419,0.672-3.063,0.075-3.734-1.307
		c-0.672-1.419-0.074-3.099,1.345-3.734c4.331-2.054,9.186-3.137,14.114-3.137c12.359,0,23.524,6.722,28.379,17.139
		c1.456,3.174,4.443,5.116,7.58,4.966c0.448-0.037,0.858-0.037,1.307-0.037C1284.776,448.925,1294.41,456.691,1294.41,466.213z"/>
	<path style="fill:#9BC5EA;" d="M1339.387,570.523c4.899-2.341,16.646-7.403,22.551-7.403c11.858,0,22.373,5.354,28.821,13.571
		c3.651,4.654,9.959,5.828,15.306,3.297c3.864-1.83,8.262-2.866,12.929-2.866c11.588,0,21.572,6.393,25.842,15.541
		c1.888,4.046,5.796,6.763,10.256,6.554c0.387-0.018,0.776-0.027,1.168-0.027c10.306,0,18.633,6.459,18.633,14.488
		c0,7.991-8.327,14.488-18.633,14.488c-7.355,0-150.146,0-166.612,0c-26.549,0-48.058-20.313-48.058-45.332
		c0-25.055,21.509-45.368,48.058-45.368c18.683,0,34.845,10.034,42.815,24.694L1339.387,570.523z"/>
	<path style="fill:#2B2150;" d="M1477.677,613.67c0,9.559-9.597,17.289-21.434,17.289h-166.612
		c-28.043,0-50.858-21.583-50.858-48.132c0-26.549,22.815-48.169,50.858-48.169c19.155,0,36.519,10.044,45.293,26.175
		c0.747,1.345,0.225,3.062-1.119,3.771c-1.382,0.747-3.063,0.262-3.81-1.12c-7.767-14.301-23.263-23.226-40.364-23.226
		c-24.943,0-45.257,19.118-45.257,42.568c0,23.45,20.313,42.531,45.257,42.531h166.612c8.737,0,15.832-5.228,15.832-11.688
		c0-6.423-7.095-11.688-15.832-11.688c-0.336,0-0.672,0-1.008,0.037c-5.415,0.224-10.493-2.95-12.92-8.177
		c-3.958-8.439-13.106-13.928-23.338-13.928c-4.07,0-8.141,0.896-11.724,2.613c-6.647,3.137-14.339,1.457-18.708-4.107
		c-6.123-7.841-16.094-12.509-26.624-12.509c-3.846,0-7.654,0.635-11.239,1.83c-0.037,0-0.037,0-0.074,0.038
		c-6.982,2.837-21.172,10.754-28.154,23.935c-0.486,0.933-1.457,1.494-2.465,1.494c-0.448,0-0.896-0.112-1.307-0.336
		c-1.382-0.709-1.904-2.39-1.158-3.771c6.348-12.06,17.625-19.977,26.063-24.271c1.979-0.971,3.771-1.792,5.34-2.39
		c0.037-0.037,0.075-0.037,0.149-0.075c1.793-0.56,3.585-1.045,5.452-1.381c2.427-0.448,4.892-0.672,7.393-0.672
		c12.248,0,23.861,5.489,31.03,14.637c2.764,3.51,7.655,4.518,11.911,2.502c4.332-2.054,9.224-3.137,14.115-3.137
		c12.397,0,23.525,6.759,28.379,17.177c1.493,3.136,4.481,5.078,7.617,4.929c0.411,0,0.858-0.037,1.27-0.037
		C1468.08,596.382,1477.677,604.148,1477.677,613.67z"/>
	<path style="fill:#F7AF4D;" d="M239.9,1499.955c0,5.285-4.284,9.569-9.568,9.569c-5.285,0-9.569-4.284-9.569-9.569
		c0-5.284,4.284-9.568,9.569-9.568C235.616,1490.387,239.9,1494.671,239.9,1499.955z"/>
	
		<ellipse transform="matrix(0.2277 -0.9737 0.9737 0.2277 -914.5179 1705.7065)" style="fill:#F7AF4D;" cx="617.993" cy="1429.352" rx="10.735" ry="10.735"/>
	<path style="fill:#2B2150;" d="M1772.964,1423.098c-16.317,0-29.61,13.442-29.61,29.946c0,11.65,6.609,21.732,16.205,26.698
		c-8.85,14.937-20.948,29.313-36.22,42.941c-13.144,11.763-27.595,22.143-42.307,31.889c1.27-2.166,2.353-4.48,3.286-6.87
		c2.24-5.862,3.248-12.136,4.257-18.223c1.456-9.11,2.875-17.736,8.14-24.42c9.746-12.397,17.625-24.943,23.375-37.266
		c2.24-4.78,3.361-10.792,4.594-17.214c1.792-9.261,3.621-18.895,8.737-23.338c3.473-3.024-1.644-5.19-4.107-5.19
		c-14.228,0-22.479,17.288-30.47,26.586c-7.842,9.148-8.962,23.039-18.334,30.955c-6.236,5.266-14.078,8.851-21.695,12.285
		c-5.639,2.577-11.426,5.19-16.691,8.589c18.446-49.999,28.977-78.863,29.163-79.349c0.672-1.792-0.635-3.696-2.539-3.771
		c-2.017,0-19.23,13.741-33.532,25.765c-0.336-12.135,0.075-24.309,1.232-36.332c1.046,0.075,2.092,0.149,3.137,0.149
		c16.318,0,29.611-13.442,29.611-29.947c0-16.504-13.293-29.946-29.611-29.946c-16.317,0-29.573,13.442-29.573,29.946
		c0,13.48,8.813,24.906,20.911,28.641c-1.382,13.965-1.793,28.08-1.195,42.157c-8.514,7.244-16.766,14.824-24.794,22.628
		c-6.423,6.273-12.36,12.435-17.774,18.371c-0.896,0.934-6.311,0.038-7.729,0.188c1.644-0.038,7.058-14.525,7.281-16.057
		c3.137-23.524-3.286-35.585-3.547-36.108c-0.747-1.381-2.651-1.829-3.958-1.008c-0.934,0.561-22.629,14.6-29.35,39.842
		c-2.987,11.239-4.892,12.248-5.041,12.285c-0.41,0-1.494-0.672-2.203-1.12c-4.854-3.062-10.156-2.838-14.376,1.232
		c-1.157,1.12-2.054,2.39-2.688,3.733c2.017-8.774,4.667-15.757,7.916-19.865h2.278c13.517,0,15.496-20.425,2.202-23.038
		c27.633-10.903,46.975-35.586,46.975-64.226v-44.248c0-38.685-32.71-71.134-76.1-71.134l-8.477-0.854V1089.61h23.227
		c6.348,0,11.5-5.19,11.5-11.688c0-6.385-5.152-11.575-11.5-11.575h-0.262c-15.795-21.359-15.758-113.665,0-137.45h0.262
		c6.497,0,11.762-5.452,11.5-12.211c-0.261-6.273-5.825-11.052-12.136-11.052h-227.327v-96.898c0-1.568-1.271-2.801-2.801-2.801
		c-1.568,0-2.801,1.233-2.801,2.801v65.719h-149.511v-65.719c0-1.568-1.27-2.801-2.801-2.801c-1.53,0-2.801,1.233-2.801,2.801
		v96.898H963.985c6.236-2.353,12.21-5.639,17.737-10.306c14.712-12.435,24.234-31.739,24.793-50.372
		c0.485-15.683-7.654-31.329-14.861-45.182c-4.937-9.507-8.625-19.342-11.799-29.573c3.173-0.49,6.439-0.824,9.41-2.128
		c10.604-4.332,16.729-15.646,14.937-27.52l-21.247-140.026c-0.71-17.102-18.932-23.188-27.707-26.138
		c-0.149-0.037-0.224-0.075-0.373-0.112c-7.767-3.51-16.281-6.049-24.682-8.551c-1.195-0.373-3.66-1.568-3.66-1.568
		c-0.075-0.187-5.899-13.256-7.654-28.117c5.489-5.938,10.194-12.584,13.853-19.455c2.091-1.68,4.07-3.51,5.975-5.34
		c0.821,4.929,2.165,9.746,4.481,14.227c6.385,12.546,20.425,21.844,36.631,24.271c3.136,0.448,6.422,0.672,9.746,0.672
		c10.493,0,21.956-2.353,34.129-7.02c2.105-0.808,2.518-4.16,0.112-5.19c-10.941-4.78-24.645-13.256-27.595-26.549
		c-2.625-11.897,1.912-23.995,3.473-35.734c1.718-12.92,2.203-22.815,1.644-32.113c-1.644-25.728-13.219-43.389-32.636-49.7
		c-12.621-4.107-27.744-2.315-39.095,4.63c-14.936-9.074-33.345-10.866-53.845-5.228c-21.172,5.825-30.88,17.102-35.025,21.881
		c-0.597,0.709-1.27,1.456-1.27,1.531c-8.14,3.772-17.998,12.995-20.985,23.413c-1.568,5.414-1.045,10.567,1.457,15.011
		c-0.747,6.385-0.784,13.667-0.038,21.994c-3.958,3.809-6.273,9.335-5.75,15.235c0.597,7.057,5.115,12.994,11.276,15.72
		c1.531,5.452,3.436,10.604,5.564,15.421c9.223,20.537,22.927,32.71,38.983,34.764l-0.411,5.265
		c-6.758,0.448-28.64,2.987-32.934,16.318c-2.203,6.908-6.422,13.853-10.866,21.172c-10.007,16.579-21.135,34.988-15.683,60.791
		l-11.463,32.598c-7.169,3.249-12.883,8.178-15.048,14.749c0,0-132.819,0-133.193,0c-1.83,0-3.174,1.793-2.726,3.547
		c0,0,30.694,111.536,30.694,111.573c0.037,0.15,1.568,1.941,2.651,1.941h51.977c-4.144,3.137-10.679,8.402-12.957,12.024
		c-3.846,6.198-14.824,35.398-26.026,67.175H519.224c-43.389,0-78.713,31.477-78.713,70.162v44.249
		c0,27.855,18.296,51.978,44.696,63.291h-62.545c-9.298,0-16.878,7.58-16.878,16.878v156.605c0,9.298,7.58,16.878,16.878,16.878
		c0,0,70.882,0,70.979,0c-2.667,2.489-3.205,5.752-3.037,8.317c0.69,10.577,10.996,11.473,10.996,11.473
		c10.717,14.974,14.451,61.201,11.128,97.123c-1.531-0.784-3.286-1.232-5.302-1.232c-2.353,0-4.892,0.635-7.58,1.941
		c-0.896-6.684,1.307-14.189,3.473-21.471c3.36-11.426,6.833-23.226-1.531-32.225c-3.622-3.921-7.879-5.899-12.659-5.899
		c-5.228,0-9.895,2.464-12.882,4.518c-2.689-8.514-9.186-28.304-13.592-35.323c-5.19-8.29-21.508-19.642-30.096-8.775
		c-8.701,15.608,1.867,38.498,14.712,51.529c-9.522,1.457-19.865,6.012-21.097,14.152c-1.681,11.165,5.339,18.408,12.77,26.101
		c2.465,2.54,5.004,5.153,7.319,8.028c-9.185,0.672-17.774,10.231-17.998,20.313c-0.224,9.447,4.331,17.662,10.157,25.652
		c-3.734,0.523-7.356,2.465-10.418,5.564c-4.182,4.219-6.647,10.044-6.572,15.57c0.112,8.626,0.262,18.26,6.609,25.877
		c-3.92,2.502-6.086,6.161-7.319,10.344c-0.187-0.187-0.336-0.336-0.485-0.523c-6.646-7.095-15.123-11.725-23.749-15.795
		c-13.816-53.098-11.496-69.327-6.534-98.019c14.642-2.239,26.997-16.393,26.997-32.672c0-18.335-14.749-33.271-32.897-33.271
		c-18.11,0-32.859,14.936-32.859,33.271c0,18.334,14.75,33.232,32.859,33.232c0,0-12.247,30.815,5.862,94.434
		c-8.364-3.809-16.99-7.804-23.898-13.592c-5.228-4.406-8.066-10.979-11.09-17.886c-2.577-5.862-5.228-11.949-9.484-16.878
		c-1.755-2.054-3.659-4.556-5.676-7.207c-7.692-10.044-17.25-22.515-28.265-22.516c-2.063-0.001-8.222,1.864-4.371,5.189
		c5.863,5.079,7.917,15.907,9.896,26.4c1.382,7.169,2.651,13.891,5.153,19.192c6.422,13.816,15.235,27.856,26.176,41.784
		c5.975,7.543,7.542,17.251,9.223,27.52c0.411,2.577,0.821,5.19,1.307,7.805c-32.449-28.715-73.336-43.95-97.757-37.453
		c-4.705-12.583-16.729-21.582-30.806-21.582c-18.11,0-32.859,14.898-32.859,33.232s14.749,33.271,32.859,33.271
		c18.147,0,32.86-14.937,32.86-33.271c0-2.128-0.187-4.22-0.598-6.235c24.01-6.349,66.914,11.202,98.877,42.194
		c0.261,0.821,0.56,1.605,0.859,2.427c4.854,12.621,14.189,22.255,24.308,31.067c-1.978-1.718-14.227-5.938-17.624-7.281
		c-24.682-9.857-50.223-20.052-66.391-40.402c-1.045-1.307-2.95-1.382-4.145-0.262c-6.236,6.124-9.037,15.534-7.543,25.168
		c1.494,9.634,7.058,17.699,14.824,21.657c6.497,3.249,16.691,3.958,20.836,10.642c2.054,3.324,1.979,7.618,1.867,12.174
		c-0.262,10.455,2.726,16.989,9.634,24.682c3.473,3.921,6.833,7.654,7.58,11.912c0,0-41.448,0-41.672,0c-3.584,0-3.66,5.824,0,5.824
		h1390.368c1.419,0,2.577-1.082,2.764-2.502c0.598-3.846,3.622-7.243,6.796-10.828c6.385-7.207,8.813-12.994,8.663-22.666
		c-0.075-3.397-0.262-7.206,1.605-10.193c3.696-5.938,12.695-6.497,18.446-9.41c7.057-3.547,12.061-10.828,13.405-19.529
		c1.344-8.662-1.195-17.139-6.796-22.665c-1.158-1.157-3.137-1.046-4.146,0.261c-14.376,18.073-37.116,27.147-59.072,35.922
		c-6.086,2.39-12.173,4.742-18.035,7.58c4.294-3.622,8.588-7.355,12.435-11.352c19.528-12.472,39.17-25.615,56.645-41.261
		c15.945-14.265,28.604-29.313,37.714-45.032c2.614,0.746,5.34,1.157,8.178,1.157c16.317,0,29.573-13.442,29.573-29.947
		C1802.537,1436.54,1789.281,1423.098,1772.964,1423.098z M384.052,1375.899c-15.011,0-27.258-12.397-27.258-27.632
		c0-15.272,12.248-27.67,27.258-27.67c15.048,0,27.296,12.397,27.296,27.67C411.348,1363.502,399.101,1375.899,384.052,1375.899z
		 M230.322,1527.613c-15.01,0-27.258-12.397-27.258-27.67c0-15.234,12.248-27.632,27.258-27.632
		c15.048,0,27.259,12.397,27.259,27.632C257.581,1515.216,245.37,1527.613,230.322,1527.613z M921.268,566.883
		c0,7.431-6.311,13.592-6.311,13.629c-6.982,5.153-14.339,7.879-21.359,7.879c-10.418,0-18.036-6.199-19.006-15.384l0.933-14.152
		c1.008-0.037,2.054-0.075,3.062-0.186c12.584-1.045,24.98-7.991,35.361-17.662C915.965,553.44,921.268,566.584,921.268,566.883z
		 M954.314,397.47c4.294,0,8.588,0.672,12.659,1.979c23.039,7.468,27.893,31.216,28.752,44.696
		c0.56,8.924,0.075,18.483-1.606,31.067c-0.411,3.211-1.083,6.497-1.754,9.97c-1.792,9.148-3.623,18.596-1.606,27.67
		c2.875,13.032,14.002,21.881,24.645,27.519c-12.696,4.107-24.346,5.377-34.764,3.809c-14.451-2.128-26.885-10.306-32.486-21.284
		c-2.614-5.153-3.846-10.903-4.518-16.916c13.069-14.787,19.828-31.963,18.857-48.804c-1.046-18.073-7.505-34.204-18.297-46.227
		c11.016-4.817,22.927-0.598,31.217,11.127c1.419,2.016,4.481-0.186,3.062-2.128c-9.596-13.592-23.636-18.185-36.631-12.061
		c-0.112,0.075-0.224,0.149-0.336,0.224c-2.054-2.128-4.331-4.107-6.758-5.9C940.76,399.075,947.556,397.47,954.314,397.47z
		 M823.847,441.867c2.502-8.625,11.053-16.616,17.849-19.753c6.348,9.037,19.044,10.269,28.528,11.202
		c3.734,0.374,4.219-3.361,0.374-3.734c-8.663-0.822-20.948-1.68-26.064-9.97c-1.307-2.165,8.439-8.588,9.896-9.671
		c6.833-5.116,14.525-8.738,22.777-11.016c19.417-5.339,36.594-3.622,50.372,5.116c17.326,10.978,28.005,30.47,29.35,53.472
		c0.971,17.512-7.282,35.548-22.852,50.447c1.158-1.083,1.531-5.825,2.203-7.505c2.502-6.46,6.049-12.21,8.065-18.932
		c2.614-8.775-2.726-17.401-12.247-17.401c-5.19,0-11.165,2.763-14.563,8.85c-5.452-6.385-17.849-17.961-36.146-17.961
		c-6.273,0-12.359,1.568-18.371,3.174c-6.236,1.68-12.659,3.361-18.372,3.361c-5.825,0-16.019-3.062-19.417-8.252
		C823.063,450.007,822.615,446.162,823.847,441.867z M817.835,492.277c-0.299-3.585,0.672-7.02,2.577-9.783
		c0.224,1.904,0.485,3.883,0.784,5.937c0.709,5.041,1.68,10.007,2.875,14.824C820.636,500.753,818.208,496.795,817.835,492.277z
		 M825.266,473.719c-0.299-4.667-0.336-8.999-0.112-12.995c5.676,3.697,12.658,6.423,19.492,6.423c6.46,0,13.256-1.793,19.79-3.547
		c5.564-1.457,11.127-2.987,16.952-2.987c17.326,0,29.014,12.434,33.009,17.438l-14.861,5.638
		c-2.801-7.841-10.642-13.293-19.455-12.546c-5.041,0.411-9.634,2.801-12.882,6.684c-3.286,3.846-4.855,8.775-4.406,13.816
		c0,0.075,0,0.112,0.037,0.187l-3.024,0.075c0,0,0.784-5.825,0.784-5.899c0.448-3.249-5.153-4.107-5.564-0.747l-0.896,6.721
		l-2.165,0.075c0.037-0.896,0.037-1.792-0.038-2.688c-0.896-10.269-10.082-18.185-20.5-17.289
		C829.224,472.263,827.17,472.822,825.266,473.719z M896.885,488.729c0.709,7.954-5.415,15.085-13.741,16.019
		c-7.73,0.859-14.675-3.771-16.318-11.501c-1.12-4.518,0.261-9.521,3.211-13.032C878.327,470.396,895.727,475.997,896.885,488.729z
		 M830.568,506.018c-0.112-0.374-0.224-0.747-0.335-1.12c-1.494-5.564-2.689-11.389-3.51-17.251
		c-0.485-3.435-0.896-6.758-1.158-9.895c9.447-5.601,21.695,1.232,22.628,11.949c0.709,8.364-5.489,15.758-13.853,16.467
		C833.966,506.205,830.68,506.392,830.568,506.018z M847.446,539.587c-4.78-5.452-8.29-11.613-11.24-18.185
		c-2.165-4.817-4.854-11.24-4.331-11.351c0.859-0.187,1.83-0.112,2.763-0.187c8.178-0.672,14.75-6.535,16.729-14.078l2.278-0.037
		c0,0-1.958,14.817-1.979,14.972c-0.616,4.664,1.415,7.059,6.273,7.059c3.211,0,8.065-0.448,10.53-2.875
		c2.464-2.427-1.382-6.423-3.958-3.958c-0.896,0.859-4.556,1.344-7.393,1.27c0-0.112,0.037-0.224,0.037-0.336l2.166-16.243
		l4.219-0.075c2.39,7.804,9.708,13.442,18.147,13.442c0.523,0,1.046-0.037,1.605-0.075c10.418-0.896,18.185-10.082,17.289-20.5
		c-0.037-0.373-0.074-0.747-0.149-1.12c0,0,16.393-6.198,16.542-6.273c1.456-0.56,3.248,1.008,4.032-1.753
		c3.093-10.883,22.012-13.024,17.961,0.67c-1.792,6.124-3.436,9.26-5.041,12.322c-2.464,4.742-4.817,9.223-6.833,22.703
		c0,0.074-4.892,8.14-7.842,11.874C901.626,549.248,869.94,565.041,847.446,539.587z M830.568,604.148
		c4.593-7.617,8.962-14.824,11.389-22.367c2.913-9.037,19.641-11.874,27.109-12.434l-0.261,3.435
		c-0.971,12.957,13.667,21.209,24.794,21.209c8.215,0,16.766-3.099,24.943-9.185c0.299-0.261,6.423-6.161,7.954-14.339
		c0.709,0.224,9.297,2.801,12.771,3.921c-3.025,6.609-13.518,16.691-27.035,23.151c-9.708,4.63-24.122,8.887-37.826,3.137
		c-5.526-2.315-8.887-6.236-11.576-13.554c-0.821-2.241-4.294-1.008-3.51,1.307c3.062,8.253,7.132,12.957,13.667,15.683
		c4.78,2.016,10.007,3.024,15.534,3.024c8.028,0,16.654-2.091,25.316-6.236c13.219-6.273,25.392-17.027,29.014-25.317
		c2.278,0.784,4.556,1.606,6.721,2.502c10.941,4.518,27.184,8.401,27.781,22.964c1.867,11.837,21.135,139.093,21.321,140.362
		c1.307,8.7-3.249,18.11-11.538,21.508c-2.39,0.971-8.178,2.726-10.829,2.129l-15.011-3.025l-87.115-21.545
		c2.689-9.037,6.199-23.077,7.618-28.864l69.08,11.65c2.128,1.083,4.63,1.307,6.721,2.465c6.535,3.547,9.708,6.796,12.696,10.866
		c2.128,2.875,6.759-0.336,4.518-3.286c-3.36-4.593-7.132-8.476-14.525-12.509c-1.941-1.045-4.07-1.456-6.124-2.203
		c0,0-14.003-84.576-14.04-84.912c-0.598-3.547-6.049-2.651-5.527,0.934l13.667,82.522l-79.386-13.405L831.8,691.002
		c0,0-3.659-0.672-5.377-0.784c-1.68-4.556-3.473-8.813-5.302-12.808C806.073,644.588,819.067,623.117,830.568,604.148z
		 M870.56,739.619l-7.318-1.829l7.095-28.117l7.767,1.307C876.684,716.917,873.211,730.807,870.56,739.619z M812.72,671.473
		c0.934,2.689,2.016,5.452,3.323,8.29c1.457,3.211,2.913,6.646,4.332,10.231c-5.041,0.075-10.157,0.784-14.937,2.129L812.72,671.473
		z M821.495,695.558c2.689,0,6.124-0.112,8.663,0.784l34.726,11.949l-7.132,28.304l-40.589-8.028l-4.705-17.14
		c-0.336-1.195-1.419-2.054-2.689-2.054h-20.163C793.975,700.375,808.5,695.558,821.495,695.558z M833.705,743.54
		c2.577,10.157,6.833,29.237,4.033,39.768c-1.681,0.56-3.361,1.195-5.004,1.867l-9.26-33.756
		C827.88,750.411,831.614,747.535,833.705,743.54z M821.942,745.967l-3.099-11.352l11.463,2.278l-0.971,2.725
		C828.141,742.905,825.229,745.295,821.942,745.967z M683.111,820.834l-29.088-105.86h153.618l29.088,105.86H683.111z
		 M724.783,841.409c1.755-2.801,8.961-8.738,14.861-12.92c0.672-0.523,2.987-2.054,2.987-2.054h97.794
		c0.261,0,76.025-21.732,76.361-21.844c2.987-0.859,2.502-5.415-0.672-5.489l-80.319-2.875l-1.568-5.676
		c2.464-1.158,3.062-1.457,6.609-2.502c8.924-2.576-0.374-40.925-2.726-49.625l121.991,29.051l13.965,2.875
		c2.801,9.223,6.759,20.462,9.634,26.213c7.505,14.974,17.736,30.843,17.214,48.244c-0.523,17.064-9.261,34.801-22.815,46.265
		c-16.057,13.555-35.996,14.451-57.093,15.384c-3.771,0.149-7.543,0.336-11.314,0.56c-18.857,1.232-44.547,1.68-54.405,1.045
		c-0.038-0.112-0.075-0.224-0.112-0.336c-1.045-3.547-2.053-6.833-3.024-9.895c-2.763-8.999-4.966-16.057-5.003-20.985
		c-0.038-3.622-5.676-3.547-5.601,0.075c0.037,5.713,2.352,13.144,5.265,22.553c8.401,27.109,13.629,55.861,16.094,84.128
		c0.448,5.041,0.784,10.119,0.896,15.198c-54.069,18.185-137.002,6.982-191.967-8.327
		C680.983,957.762,717.913,852.5,724.783,841.409z M837.327,801.903l61.014,2.166l-55.973,16.094L837.327,801.903z M817.648,1046.37
		c3.697,1.531,7.207,4.033,10.082,7.17c5.34,5.937,9.224,14.151,11.8,25.093c-4.667,3.062-9.111,6.87-12.397,11.426
		c-2.726,3.585-4.892,7.617-6.609,12.173c-0.821,2.203,2.614,3.548,3.51,1.307c1.942-5.19,4.518-9.634,7.916-13.479
		c1.718-2.017,3.66-3.884,5.9-5.601c0.822-0.636,1.643-1.271,2.539-1.867c-0.261,0.149,0.859,5.339,0.709,5.974
		c-0.299,1.345-1.531,2.241-2.464,3.1c-5.265,4.892-12.583,12.621-15.198,23.226c-0.859,3.585-1.157,7.356-1.456,11.016
		c-0.485,5.938-0.934,11.575-3.734,15.721c-2.091,3.136-5.489,5.265-8.551,6.982c-11.09,6.348-23.001,10.94-35.435,13.666
		c-3.025,0.673-4.407,0.112-6.199-2.39c8.924-1.979,25.055-8.215,29.611-10.828c2.054-1.195,0.299-4.443-1.83-3.249
		c-4.929,2.838-22.628,9.41-30.059,10.717c-3.772-5.751-6.647-11.65-5.377-16.99c1.045-4.556,4.742-7.281,8.999-10.418
		c2.726-2.016,5.526-4.107,7.767-6.796c1.68-2.016,2.95-4.294,3.958-6.684c0.448-1.046,7.655,0.672,8.514,0.934
		c3.174,0.971,6.161,2.613,8.626,4.816c2.912,2.913,6.497,6.609,11.09,5.564c2.464-0.598,4.556-2.577,5.9-5.639
		c1.381-3.174,1.606-6.386,0.597-9.074c-1.12-3.062-3.697-5.152-6.012-6.833c-7.281-5.152-17.475-8.588-26.437-9.036
		c-0.112-2.054-0.672-7.991-0.784-8.85c4.145,4.854,9.895,3.397,12.995,2.688c7.543-1.83,13.032-8.178,16.99-14.451
		C817.313,1068.289,819.329,1055.743,817.648,1046.37z M843.002,1095.249l8.999,30.245c0.411,1.382-0.336,2.801-1.792,3.324
		c-1.307,0.447-2.8-0.225-3.323-1.531l-10.231-25.467C838.297,1099.842,842.816,1095.436,843.002,1095.249z M782.325,1111.865
		c0.971-3.696,1.269-7.654,1.195-11.725c8.14,0.447,17.625,3.659,24.159,8.327c1.867,1.344,3.883,2.987,4.667,5.078
		c0.896,2.39,0.075,4.966-0.523,6.272c-0.373,0.896-1.494,3.063-3.323,3.473c-1.083,0.262-2.427-0.148-3.771-1.045
		c-0.896-0.635-1.718-1.456-2.576-2.315c-0.448-0.448-0.896-0.858-1.382-1.307C795.804,1114.143,789.008,1111.679,782.325,1111.865z
		 M807.865,1072.77c-3.809,6.05-8.215,10.157-12.472,11.688c-2.24,0.858-4.854,1.045-7.058,0c-2.614-1.009-4.705-3.436-5.974-6.946
		l-25.168-65.643c12.733,1.231,25.541,1.904,38.125,1.904c2.39,0,4.78-0.037,7.169-0.075l9.111,31.366
		C813.952,1053.092,812.234,1065.787,807.865,1072.77z M725.492,1120.267c-9.073,2.95-17.736,6.161-24.234,13.555
		c-2.427,2.764-4.443,5.975-6.385,9.074c-3.174,5.041-6.199,9.82-10.605,12.21c-3.323,1.83-7.319,2.091-10.791,2.24
		c-12.771,0.448-25.503-1.008-37.751-4.331c-3.435-0.934-4.07-2.539-4.481-5.9c-0.112-0.858-0.224-1.755-0.298-2.613
		c3.323,2.39,7.58,3.622,11.799,4.519c9.335,2.016,17.177,2.949,24.234,2.949c5.489,0,11.016-0.485,16.393-1.531
		c2.39-0.447,1.68-4.107-0.71-3.659c-3.697,0.71-7.841,1.195-12.36,1.382c-7.692,0.373-16.206-0.522-26.773-2.801
		c-4.705-1.008-9.933-2.39-12.77-6.198c-0.037-0.074-0.112-0.112-0.187-0.224c-0.038-4.967,0.71-9.41,3.398-12.51
		c3.062-3.547,7.618-4.257,12.845-5.078c3.323-0.522,6.759-1.045,10.044-2.427c1.83-0.747,3.473-1.681,5.004-2.838
		c3.66,2.8,6.908,6.87,8.29,8.7c1.12,1.531,3.435,1.643,4.742,0.336c1.979-1.941,7.655-7.617,10.12-10.68
		c1.195-1.419,1.12-3.473-0.149-4.892c-2.838-3.062-10.903-9.409-11.016-9.484c1.419-3.062,2.726-6.235,3.958-9.484
		c-0.747,1.979,3.323,5.004,4.63,5.975c2.913,2.091,6.422,3.024,10.007,3.024c5.19,0,11.164-1.829,17.363-5.451
		c1.568-0.896,3.099-2.054,4.63-3.361c0.448,1.046,0.859,2.166,1.158,3.323c0.299,1.158,0.523,2.315,0.672,3.511
		c0.971,6.721,0.821,13.517-0.448,20.163c-0.56,2.839,3.099,2.614,3.697,0c2.166-9.857,1.381-20.35-2.128-29.797
		c4.705-5.041,8.327-11.091,10.567-17.588c4.966,6.05,6.908,14.152,6.833,21.994c-0.075,7.841-2.017,15.533-4.182,23.039
		C729.749,1118.475,728.368,1119.333,725.492,1120.267z M727.695,1125.457l-6.049,30.992c-0.224,1.271-1.344,2.166-2.614,2.166
		c-0.112,0-0.262,0-0.486-0.037c-1.419-0.224-2.39-1.494-2.277-2.913l2.726-27.295c2.427-1.009,5.079-1.904,8.028-2.688
		C727.248,1125.606,727.472,1125.569,727.695,1125.457z M664.815,1113.62c2.913-2.838,5.265-6.311,7.319-10.156
		c3.024,2.353,7.43,5.825,10.007,8.625c-2.203,2.689-7.169,7.692-9.41,9.934C670.976,1119.707,668.1,1116.309,664.815,1113.62z
		 M729.413,1063.883c0,0,5.9-29.313,5.937-29.499c0.709-3.51-4.779-4.705-5.489-1.12l-6.684,33.195
		c-1.195,5.938-5.414,13.032-10.306,18.073c-2.203,2.24-4.667,4.182-7.468,5.601c-7.841,4.183-15.011,5.004-19.342,2.129
		c-3.323-2.203-4.406-6.759-3.846-10.604l9.373-80.356c13.629,3.1,28.267,5.825,43.39,7.953c-1.046,3.548-1.681,7.132-2.427,10.754
		c-0.71,3.473,4.78,4.631,5.489,1.083c0.149-0.784,1.941-11.053,2.539-11.053c3.435,0.448,6.908,0.859,10.38,1.232l24.682,64.375
		v0.149c0.187,2.464,0.523,5.003,0.821,7.542h-36.855c-0.149-1.12-0.411-2.203-0.672-3.286
		C737.217,1073.517,733.819,1067.841,729.413,1063.883z M446.112,1020.046v-44.249c0-35.623,32.785-64.561,73.112-64.561h172.774
		c-10.866,30.955-21.471,63.068-25.578,77.706c-0.411,1.456-0.224,3.062,0.56,4.406c0.71,1.269,1.867,2.165,3.249,2.539
		c5.041,1.419,10.343,2.763,15.832,4.107l-8.924,76.772c-0.037,0.074-0.075,0.187-0.112,0.261c-0.858,2.054-2.763,7.095-2.912,7.506
		l-154.888,0.112c-5.041,0-9.97-0.448-14.712-1.308C471.205,1077.288,446.112,1051.225,446.112,1020.046z M508.134,1293.488
		c-0.112-0.187,567.125,0,567.125,0c24.383,0,44.211,18.671,44.211,42.345v54.778c0,23.636-19.828,42.866-44.211,42.866h-34.914
		v-60.939l57.505,0.075c1.045,0,1.867-0.822,1.867-1.867c0-1.008-0.822-1.867-1.867-1.867l-58.177-0.074l-65.905-0.038
		l-164.148-0.187c-1.008,0-1.867,0.821-1.867,1.867c0,1.008,0.858,1.867,1.867,1.867l163.439,0.187v60.977H650.7
		c0.112-1.008,0.149-2.054,0.149-3.099c0-18.335-14.75-33.271-32.86-33.271c-18.11,0-32.859,14.936-32.859,33.271
		c0,1.045,0.038,2.091,0.149,3.099h-18.894c-0.971-3.51-1.867-5.377-1.979-5.563c-0.822-1.382-2.539-2.054-4.07-1.046
		c-0.336,0.225-3.584,2.465-7.878,6.609h-34.241c4.107-15.011,3.174-25.765,2.763-29.014c-0.411-3.174-1.494-6.534-3.324-9.298
		C521.577,1359.469,518.403,1312.831,508.134,1293.488z M1034.745,1373.397l-0.037,129.085l-25.877-30.059
		c-1.083-1.232-3.174-1.232-4.257,0l-25.914,30.096v-129.122H1034.745z M973.059,1439.079v9.82H645.36
		c1.942-2.875,3.398-6.348,4.331-9.82H973.059z M645.248,1430.379c0,15.234-12.21,27.632-27.259,27.632
		c-15.048,0-27.258-12.397-27.258-27.632c0-15.272,12.21-27.67,27.258-27.67C633.038,1402.709,645.248,1415.106,645.248,1430.379z
		 M590.582,1448.638h-22.106c-0.112-3.659-0.448-6.87-0.934-9.559h18.745C587.184,1442.552,588.678,1445.763,590.582,1448.638z
		 M513.511,1448.601c0.448-2.129,2.838-9.073,2.987-9.521h30.656c-2.352,2.763-4.779,5.937-7.02,9.559L513.511,1448.601z
		 M536.308,1454.361c-2.086,5.636-3.38,8.765-4.687,13.88c-0.261,0.972-0.485,1.867-0.709,2.689
		c-2.39-3.771-6.236-6.236-10.306-6.236c-1.643,0-3.212,0.448-4.63,1.232c-0.224-0.784-0.448-1.494-0.635-2.203
		c-0.934-3.137-1.656-6.229-2.071-9.661L536.308,1454.361z M433.715,1488.331c1.979-0.747,2.427-3.323,0.859-4.742
		c-6.759-5.862-7.393-13.555-7.543-24.607c-0.112-7.021,5.9-15.608,13.48-15.608c1.045,0,2.053,0.187,3.024,0.522
		c2.576,0.896,4.892-2.128,3.174-4.331c-6.908-8.85-13.069-17.588-12.845-27.184c0.149-7.356,6.945-14.861,13.442-14.861
		c1.419,0,2.726,0.336,3.958,1.045c2.464,1.419,5.265-1.456,3.771-3.884c-3.51-5.787-8.028-10.492-12.061-14.637
		c-6.982-7.244-12.546-12.957-11.276-21.396c0.859-5.676,12.509-9.895,22.33-9.895c1.195,0,2.24-0.784,2.651-1.905
		c0.374-1.12,0-2.389-0.934-3.136c-12.845-9.933-26.288-33.569-18.558-48.394c1.457-1.12,3.174-1.681,5.078-1.681
		c5.265,0,11.987,4.406,15.646,10.269c5.153,8.215,14.077,37.564,14.189,37.901c0.672,1.829,2.987,2.763,4.63,1.194
		c5.937-5.639,14.787-8.215,20.948-1.568c6.198,6.685,3.435,16.02,0.261,26.848c-2.763,9.373-5.638,19.044-2.651,28.155
		c0.56,1.68,2.614,2.539,4.145,1.493c3.734-2.39,8.887-4.593,12.546-0.971c2.091,2.091,3.062,5.377,3.436,8.252
		c0.971,7.058,0.224,19.529-4.668,33.383c-4.705,13.256-3.883,16.131-0.784,26.698c0.523,1.867,1.158,3.958,1.83,6.422
		c0.598,2.241,3.622,2.801,4.966,0.896c3.1-4.406,8.103-1.456,10.194,2.315c1.232,2.203,1.568,7.543-2.278,5.004
		c-1.717-1.121-3.809-2.54-6.572-2.54c-2.651,0-5.153,1.27-7.617,3.884c-6.049,6.311-4.667,16.317-3.51,24.346
		c0.486,3.548,1.045,7.506,0.448,8.962c-1.195,2.875-2.464,2.502-5.041,1.493c-1.755-0.709-3.734-1.53-5.975-1.53
		c-3.92,0-7.095,2.427-9.671,7.431c-9.709,18.707-9.597,39.805-5.004,58.736c-2.24-1.083-4.518-2.017-6.758-2.987
		c-5.975-2.502-11.576-4.892-16.355-8.589c-11.352-8.774-15.795-22.814-20.5-37.639c-3.361-10.567-6.796-21.396-12.957-30.47
		C426.135,1494.642,428.189,1490.422,433.715,1488.331z M350.819,1627.686c-1.457-5.004-5.078-11.726-8.551-15.646
		c-6.035-6.77-8.394-11.745-8.215-20.836c0.112-5.152,0.224-10.492-2.689-15.235c-5.041-8.172-15.251-8.735-23.076-12.694
		c-6.198-3.137-10.604-9.672-11.837-17.514c-1.046-6.684,0.411-13.181,3.921-17.96c17.102,19.753,42.232,29.797,66.578,39.506
		c3.473,1.419,6.945,2.801,10.381,4.22c34.241,14.04,55.749,34.689,63.964,56.16H350.819z M503.354,1627.686h-20.798
		c-3.099-12.958-13.181-26.736-21.956-32.973c-3.809-2.763-7.879-5.265-11.8-7.691c-8.962-5.639-17.811-11.352-24.832-19.454
		c-6.982-8.104-12.172-17.662-16.392-27.445c-0.971-2.203-4.406-0.784-3.436,1.456c4.294,9.895,9.522,19.491,16.542,27.781
		c7.319,8.7,16.579,14.861,26.138,20.836c3.883,2.39,7.879,4.892,11.613,7.543c9.933,7.057,17.55,20.164,20.201,29.947H447.27
		c-5.75-16.654-18.558-33.98-38.311-46.414c-3.473-3.286-7.207-6.311-10.866-9.41c-12.285-10.344-24.943-21.022-30.544-35.549
		c-2.278-6.012-3.398-12.732-4.443-19.267c-1.718-10.53-3.473-21.396-10.343-30.097c-10.68-13.555-19.268-27.259-25.503-40.664
		c-2.204-4.667-3.436-11.09-4.705-17.886c-1.681-8.737-3.398-17.699-7.356-24.271c7.057,2.614,14.227,11.949,20.126,19.642
		c5.676,7.543,10.642,14.189,14.451,22.89c3.136,7.244,6.422,14.712,12.658,19.939c7.655,6.423,16.803,10.604,25.69,14.638
		c3.361,1.531,6.759,3.024,10.045,4.742c6.758,3.397,12.957,7.207,17.96,12.584c8.588,9.223,12.659,22.143,16.654,34.614
		c4.742,15.011,9.671,30.544,22.404,40.364c5.377,4.146,11.576,6.797,17.587,9.336c5.751,2.464,11.202,4.742,15.907,8.252
		c5.042,3.771,11.875,10.306,14.526,19.155c0.56,1.867,0.933,3.809,1.045,5.862C504.475,1618.91,504.213,1624.549,503.354,1627.686z
		 M509.217,1627.686c1.344-6.609,0.634-16.468-1.979-22.666c1.083-16.99,3.995-33.868,8.625-50.261
		c0.635-2.314-2.913-3.397-3.622-1.008c-4.145,14.787-6.945,29.91-8.327,45.182c-2.913-4.406-6.908-8.551-11.912-12.284
		c-1.158-0.859-2.39-1.681-3.623-2.428c-5.563-18.895-6.534-40.589,3.324-59.67c2.277-4.406,4.033-4.406,4.705-4.406
		c3.174,0,5.825,2.465,9.074,2.465c3.137,0,5.527-1.979,7.132-5.9c1.157-2.837,0.597-6.833-0.112-11.837
		c-0.934-6.87-2.166-15.384,2.017-19.753c2.8-2.912,4.668-2.128,7.057-0.522c1.456,0.971,3.137,2.054,5.116,2.054
		c4.406,0,7.132-4.443,10.343-17.027c4.742-18.521,17.774-31.067,23.599-35.884c1.456,4.816,3.473,15.011,1.456,30.656
		c-0.15,1.046-1.755,4.257-2.913,6.572c-2.875,5.713-4.743,9.671-4.556,12.621c0.037,0.672,0.485,3.958,4.966,3.958
		c2.464,0,8.439-2.203,8.439,1.792c0,9.261-4.518,16.766-8.925,24.048c-3.435,5.713-6.684,11.09-7.169,16.766
		c-0.747,8.774,4.668,11.799,8.663,14.002c3.809,2.129,5.34,3.137,4.593,6.945c-5.639,29.499-21.62,63.143-31.702,76.586
		C533.488,1627.686,509.367,1627.834,509.217,1627.686z M570.717,1552.146c1.493-7.916-3.66-10.791-7.394-12.883
		c-3.622-2.017-6.273-3.473-5.788-8.625c0.374-4.369,3.137-8.999,6.385-14.339c4.555-7.58,9.708-16.169,9.708-26.96
		c0-2.39-0.784-7.879-8.103-7.879c-1.195,0-4.63,0.411-5.078,0.448c0.635-2.24,2.502-5.975,3.734-8.401
		c1.979-3.958,3.211-6.497,3.473-8.364c0.523-3.958,0.784-7.58,0.859-10.903h26.661c4.107,4.032,9.223,6.945,14.898,8.401
		c-4.854,27.968-37.228,119.975-42.456,128.712c-5.713,9.597-14.674,22.404-26.101,31.665
		C551.86,1607.372,565.526,1579.254,570.717,1552.146z M1134.892,1610.658h-30.432c-23.898,0-43.353-18.97-43.353-42.27v-53.994
		c0-23.301,19.454-42.232,43.353-42.232h30.432V1610.658z M1134.892,1466.562h-30.432c-26.997,0-48.953,21.471-48.953,47.833v53.994
		c0,26.399,21.956,47.87,48.953,47.87h30.432v11.016H544.653c12.248-9.783,21.733-22.927,27.781-33.047
		c5.863-9.82,38.2-102.051,43.128-130.729c0.784,0.075,1.606,0.112,2.427,0.112c8.85,0,16.878-3.585,22.815-9.372h332.255v50.708
		c0,1.27,0.374,2.465,1.045,3.436c1.606,2.24,4.817,2.427,6.609,0.373l25.989-30.208l25.988,30.208
		c0.821,0.971,1.941,1.494,3.137,1.494c2.539,0,4.518-2.315,4.518-5.303v-50.708h94.546V1466.562z M1134.892,1449.012l-94.546-0.075
		v-9.857h34.914c27.482,0,49.812-21.732,49.812-48.468v-54.778c0-26.773-22.329-48.506-49.812-48.506c0,0-570.324,0-572.311,0
		c-9.044,0-8.72-13.629-1.088-13.629h633.03V1449.012z M1134.892,1268.401H422.662c-6.236,0-11.277-5.345-11.277-11.581v-156.605
		c0-6.235,5.041-11.276,11.277-11.276c5.452,0,248.762,0.037,249.732-0.037c-0.523,0.037-3.883,9.335-4.369,10.269
		c-3.286,6.609-7.394,12.136-13.331,14.6c-2.651,1.083-5.601,1.568-8.738,2.054c-5.825,0.896-11.799,1.83-16.206,6.945
		c-5.564,6.423-5.228,15.833-4.07,25.056c0.71,5.639,2.95,9.073,8.551,10.567c11.276,3.062,22.927,4.63,34.651,4.63
		c1.568,0,3.174-0.037,4.78-0.074c4.145-0.149,8.924-0.523,13.293-2.913c8.887-4.854,12.135-15.234,18.521-22.517
		c2.091-2.39,4.63-4.48,7.655-6.235c0,0-2.427,23.748-2.427,23.823c-1.008,10.007,14.488,12.472,16.43,2.427
		c2.614-13.256,4.294-27.37,8.625-40.028c3.324-10.344,4.817-19.38,4.556-27.408c0-0.373-0.037-0.784-0.075-1.157h36.855
		c1.83,9.186,2.091,22.18-4.219,29.798c-1.829,2.203-4.257,3.958-6.796,5.862c-4.705,3.51-9.597,7.095-11.127,13.666
		c-1.942,8.29,2.688,16.467,7.991,24.085c1.232,1.718,2.876,4.107,5.415,5.228c1.045,0.448,2.203,0.672,3.435,0.672
		c1.344,0,2.577-0.261,3.659-0.485c12.995-2.875,25.466-7.654,37.042-14.264c3.584-2.054,7.655-4.593,10.418-8.775
		c3.584-5.377,4.145-11.986,4.63-18.371c0.299-3.585,0.598-6.982,1.344-10.119c0.709-3.063,2.017-6.087,3.884-9.037l8.924,22.181
		c1.269,3.137,4.256,5.19,7.655,5.19c5.451,0,9.559-5.414,8.028-10.643c0,0-10.38-34.838-10.455-34.987h287.968V1268.401z
		 M1134.892,1067.505H950.169c-24.383,0-44.211-19.155-44.211-42.68v-54.555c0-23.524,19.828-42.68,44.211-42.68h184.722V1067.505z
		 M1134.892,921.99H950.169c-27.482,0-49.812,21.657-49.812,48.281v54.555c0,26.623,22.33,48.281,49.812,48.281h184.722v10.23
		H846.251c-2.688-14.823-7.431-25.839-14.376-33.568c-4.369-4.817-10.119-8.364-15.944-9.896l-7.692-26.362
		c20.806-0.829,41.577-3.677,61.238-10.755c0-22.71-3.724-45.478-8.141-67.697c-1.792-9.036-4.555-21.097-4.593-21.321h0.112
		c11.276,0.485,35.324,0.038,53.21-1.12c8.523-0.511,17.064-0.722,25.578-1.382h199.248V921.99z M1290.004,1627.162l-149.511,0.112
		v-11.016h149.511V1627.162z M1290.004,1610.658h-149.511v-51.082h149.511V1610.658z M1290.004,1553.976h-149.511v-69.901h149.511
		V1553.976z M1290.004,1478.473h-149.511v-6.311h149.511V1478.473z M1290.004,1466.562h-149.511v-12.322h149.511V1466.562z
		 M1290.004,1449.086l-149.511-0.074v-40.439h149.511V1449.086z M1290.004,1402.971h-149.511v-69.901h149.511V1402.971z
		 M1290.004,1327.469h-149.511v-53.771h149.511V1327.469z M1290.004,1268.401h-149.511v-10.834h149.511V1268.401z
		 M1290.004,1251.967h-149.511v-69.901h149.511V1251.967z M1290.004,1176.464h-149.511v-69.9h149.511V1176.464z M1290.004,1100.962
		h-149.511v-12.023h149.511V1100.962z M1290.004,1083.337h-149.511v-10.23h149.511V1083.337z M1290.004,1067.505h-149.511v-36.444
		h149.511V1067.505z M1290.004,1025.46h-149.511v-69.901h149.511V1025.46z M1290.004,949.958h-149.511v-22.367h149.511V949.958z
		 M1290.004,921.99h-149.511v-10.754h149.511V921.99z M1290.004,905.635h-149.511v-25.579h149.511V905.635z M1615.611,1376.981
		c0-13.442,10.754-24.346,23.973-24.346c13.256,0,24.01,10.903,24.01,24.346c0,13.405-10.754,24.347-24.01,24.347
		C1626.365,1401.328,1615.611,1390.387,1615.611,1376.981z M1608.854,1474.44c16.952-16.579,35.1-32.038,53.956-46.414
		c-4.816,13.144-30.096,79.982-30.619,80.506c-8.476,9.073-12.284,21.172-16.019,32.859c-4.182,13.181-8.103,25.652-18.147,33.419
		c-4.443,3.398-9.671,5.564-15.272,7.917c3.212-8.401,5.862-17.14,7.58-25.766c1.531-7.804-3.771-10.604-7.654-12.62
		c-4.257-2.24-6.423-3.622-6.012-8.29c0.373-4.145,3.323-8.775,6.46-13.704c4.667-7.281,9.933-15.57,9.895-26.101
		c0-1.27-0.224-2.913-1.082-4.369C1597.091,1486.202,1602.729,1480.377,1608.854,1474.44z M1524.726,1511.743
		c0.522,3.36,1.083,7.169,0.522,8.514c-0.821,1.941-1.83,2.651-3.846,1.867c0.485-7.207,1.232-14.152,2.277-20.537
		C1523.68,1505.022,1524.24,1508.532,1524.726,1511.743z M1295.605,911.235h227.963c3.248,0,6.233,2.704,5.899,6.161
		c-0.579,5.993-6.05,4.593-6.983,4.593h-226.879V911.235z M1295.605,927.591h221.988c-0.225,0.411-0.448,0.859-0.673,1.307
		c-14.338,28.342-14.338,110.453-0.149,137.45c0.188,0.41,0.374,0.784,0.598,1.157h-221.764V927.591z M1295.605,1073.106h226.879
		c0.859,0,6.871-0.355,6.983,4.966c0.069,3.285-2.651,5.265-5.899,5.265h-227.963V1073.106z M1295.605,1088.938h199.136v179.463
		h-199.136V1088.938z M1295.605,1273.698h210.599c40.328,0,73.113,31.067,73.113,66.69v44.248c0,32.71-27.595,59.781-63.33,64.001
		c-3.211,0.411-6.459,0.598-9.783,0.598l-210.599-0.112V1273.698z M1295.605,1454.239h240.136c3.248,0,5.899,2.688,5.899,6.161
		c0,3.248-2.651,5.899-5.899,5.899l-240.136,0.262V1454.239z M1295.605,1472.162h231.024
		c-14.675,26.773-14.937,109.818-0.934,137.188c0.262,0.448,0.485,0.896,0.71,1.308h-230.801V1472.162z M1535.741,1627.013
		l-240.136,0.149v-10.903c0,0,234.086,0,235.879,0c3.285,0,8.438-0.112,9.857,3.659
		C1542.611,1623.391,1539.139,1627.013,1535.741,1627.013z M1545.711,1626.938c0.971-1.718,1.53-3.884,1.53-6.012
		c0-3.958-1.979-7.469-5.04-9.56c3.061-53.913,11.498-102.338,17.174-110.002c1.438-1.941-1.563-4.198-2.985-2.243
		c-6.833,9.223-14.823,59.334-17.812,110.601c0.013-0.859-6.113,0.061-6.422-0.372c-8.962-12.546-12.621-48.804-11.09-81.477
		c0.672,0.149,1.381,0.262,2.128,0.262c3.137,0,5.563-1.904,7.207-5.676c1.194-2.801,0.597-6.685-0.149-11.576
		c-1.083-6.907-2.278-14.749,1.904-18.856c2.912-2.838,4.966-2.054,7.468-0.448c1.494,0.896,3.174,1.942,5.19,1.942
		c5.041,0,7.729-6.273,10.455-16.431c4.779-17.96,18.297-30.021,24.159-34.577c1.531,4.631,3.734,14.563,1.718,29.648
		c-0.111,0.934-1.755,3.996-2.912,6.236c-2.95,5.526-4.854,9.372-4.668,12.285c0.074,0.934,0.635,3.883,5.078,3.883
		c2.357,0,8.682-2.034,8.775,1.718c0.037,8.887-4.556,16.094-9.036,23.076c-3.511,5.489-6.834,10.717-7.319,16.206
		c-0.747,8.588,4.892,11.575,8.999,13.704c4.146,2.202,5.452,3.211,4.78,6.609c-2.017,10.231-5.415,20.574-9.41,30.208
		c-2.502,1.232-4.929,2.651-7.207,4.332c-13.106,9.82-18.521,23.449-15.011,36.519H1545.711z M1668.821,1580.823
		c3.063-1.271,6.162-2.502,9.261-3.734c21.62-8.626,43.912-17.513,59.222-35.025c2.913,4.145,4.107,9.746,3.212,15.459
		c-1.083,6.908-4.967,12.658-10.381,15.384c-1.979,1.009-4.183,1.756-6.534,2.54c-5.378,1.829-10.941,3.696-14.152,8.924
		c-4.519,7.318-0.411,15.981-3.473,23.524c-1.345,3.286-3.921,5.975-6.236,8.588c-3.024,3.361-6.161,6.162-7.542,10.456
		c-0.038,0.074-79.983,0.074-79.946,0c0.038-0.112,2.24-4.183,2.764-5.079c3.696-6.796,9.036-13.181,15.944-19.08
		C1640.556,1594.564,1653.176,1587.245,1668.821,1580.823z M1651.944,1577.238c-5.602,4.667-11.202,9.372-16.094,14.787
		c-7.244,4.966-13.331,10.38-18.185,16.168c-2.988,3.473-5.489,7.132-7.543,10.866c-1.457,2.651-3.809,7.767-3.847,7.879
		c0,0-28.341,0.187-28.304,0c4.668-23.264,28.154-30.545,44.286-44.174c10.081-8.477,17.736-19.716,22.366-32.038
		c1.195-3.174-2.427-4.332-3.846-0.522c-3.137,8.401-7.805,16.317-13.778,23.038c-8.401,9.41-19.94,15.272-30.283,22.517
		c-5.489,3.847-10.754,8.29-14.861,13.629c-3.1,4.07-7.805,12.136-8.178,17.551h-15.235c-3.473-14.227,6.609-27.146,13.145-32.038
		c4.182-3.1,8.998-5.153,14.114-7.318c5.377-2.278,10.903-4.631,15.72-8.365c11.427-8.813,15.833-22.702,20.09-36.146
		c3.547-11.09,7.169-22.553,14.787-30.693c6.571-7.095,15.459-11.127,24.831-15.384c7.953-3.623,16.168-7.356,23.001-13.107
		c5.639-4.704,8.551-11.389,11.352-17.886c2.203-5.078,4.332-9.895,7.618-13.704c1.605-1.904,3.36-4.182,5.228-6.608
		c5.041-6.572,11.053-14.451,16.989-17.103c-3.248,5.825-4.704,13.48-6.123,20.948c-1.158,6.049-2.241,11.763-4.183,15.869
		c-5.563,11.949-13.219,24.122-22.703,36.184c-6.161,7.804-7.767,17.55-9.297,26.997c-0.934,5.787-1.905,11.762-3.922,17.102
		C1674.124,1558.568,1662.848,1568.053,1651.944,1577.238z M1772.964,1477.39c-13.256,0-24.01-10.903-24.01-24.346
		c0-13.405,10.754-24.346,24.01-24.346c13.219,0,23.973,10.94,23.973,24.346C1796.937,1466.486,1786.183,1477.39,1772.964,1477.39z"
		/>
</g>
</svg>
